<svg width="32" height="32" viewBox="0 0 32 32" fill="none" xmlns="http://www.w3.org/2000/svg">
<circle cx="16" cy="16" r="14.5" fill="#116496" stroke="white"/>
<rect width="18" height="18" transform="translate(7 7)" fill="#006599"/>
<path fill-rule="evenodd" clip-rule="evenodd" d="M8.6875 10.9375H23.3125V14.2782L22.9105 14.3978C22.0581 14.6515 21.4375 15.4415 21.4375 16.375C21.4375 17.3085 22.0581 18.0985 22.9105 18.3522L23.3125 18.4718V21.8125H8.6875V18.4718L9.08955 18.3522C9.9419 18.0985 10.5625 17.3085 10.5625 16.375C10.5625 15.4415 9.9419 14.6515 9.08955 14.3978L8.6875 14.2782V10.9375ZM9.8125 12.0625V13.4696C10.9178 13.9697 11.6875 15.0819 11.6875 16.375C11.6875 17.6681 10.9178 18.7803 9.8125 19.2804V20.6875H22.1875V19.2804C21.0822 18.7803 20.3125 17.6681 20.3125 16.375C20.3125 15.0819 21.0822 13.9697 22.1875 13.4696V12.0625H9.8125Z" fill="white"/>
<path d="M16 18.25C16.4142 18.25 16.75 18.5858 16.75 19C16.75 19.4142 16.4142 19.75 16 19.75C15.5858 19.75 15.25 19.4142 15.25 19C15.25 18.5858 15.5858 18.25 16 18.25Z" fill="white"/>
<path d="M16 15.625C16.4142 15.625 16.75 15.9608 16.75 16.375C16.75 16.7892 16.4142 17.125 16 17.125C15.5858 17.125 15.25 16.7892 15.25 16.375C15.25 15.9608 15.5858 15.625 16 15.625Z" fill="white"/>
<path d="M16 13C16.4142 13 16.75 13.3358 16.75 13.75C16.75 14.1642 16.4142 14.5 16 14.5C15.5858 14.5 15.25 14.1642 15.25 13.75C15.25 13.3358 15.5858 13 16 13Z" fill="white"/>
</svg>
