<svg width="32" height="32" viewBox="0 0 32 32" fill="none" xmlns="http://www.w3.org/2000/svg">
<circle cx="16" cy="16" r="14.5" fill="#E46615" stroke="white"/>
<path fill-rule="evenodd" clip-rule="evenodd" d="M18.0985 10.856L20.1022 8.85226L20.8977 9.64776L18.894 11.6514C18.385 12.1605 18.103 12.7482 18.0548 13.3007C18.0221 13.676 18.0948 14.0527 18.2996 14.4049L21.9772 10.7273L22.7727 11.5228L19.0932 15.2023C19.4475 15.4131 19.8235 15.4921 20.1924 15.4677C20.7311 15.432 21.2926 15.1717 21.7643 14.7C22.318 14.1463 22.8396 13.6223 23.2227 13.2367C23.4143 13.0439 23.5712 12.8857 23.6802 12.7758L23.8495 12.6049L23.8502 12.6043L24.6497 13.3958L24.479 13.5679C24.3698 13.6781 24.2126 13.8365 24.0207 14.0296C23.6371 14.4158 23.1146 14.9407 22.5597 15.4955C21.9228 16.1325 21.114 16.5341 20.2668 16.5902C19.5779 16.6359 18.8882 16.4507 18.2815 16.0139L17.358 16.9375L23.1477 22.7273L22.3522 23.5228L17.875 19.0455L15.625 21.2955L14.3125 19.983L10.7727 23.5228L9.97722 22.7273L13.517 19.1875L10.2235 15.8941C8.83232 14.5028 8.8323 12.2472 10.2235 10.856L10.75 10.3295L16.5625 16.142L17.4868 15.2177C17.0494 14.6048 16.8729 13.9048 16.9341 13.203C17.0091 12.3431 17.436 11.5185 18.0985 10.856ZM17.0795 18.25L10.7708 11.9414C10.0759 12.8947 10.1587 14.2382 11.019 15.0986L15.625 19.7045L17.0795 18.25Z" fill="white"/>
</svg>
