<svg width="1000" height="1100" viewBox="0 0 1000 1100" fill="none" xmlns="http://www.w3.org/2000/svg">
<path d="M500 864.606C505.885 864.606 510.656 860.233 510.656 854.839C510.656 849.444 505.885 845.071 500 845.071C494.115 845.071 489.344 849.444 489.344 854.839C489.344 860.233 494.115 864.606 500 864.606Z" fill="black"/>
<path d="M500 481C401.829 481 322.404 560.424 322.404 658.595C322.404 756.766 401.829 836.191 500 836.191C598.171 836.191 677.596 756.766 677.596 658.595C677.596 560.424 598.171 481 500 481ZM500 816.458C412.929 816.458 342.384 745.667 342.384 658.595C342.384 571.524 413.176 500.979 500.247 500.979C587.318 500.979 657.863 571.524 657.863 658.595C657.863 745.667 587.071 816.211 500 816.211V816.458ZM460.534 670.682C460.534 682.768 450.668 692.388 438.828 692.388C426.989 692.388 417.122 682.521 417.122 670.682C417.122 658.842 426.742 648.976 438.828 648.976C450.915 648.976 460.534 658.595 460.534 670.435V670.682ZM583.125 670.682C583.125 682.768 573.258 692.388 561.419 692.388C549.579 692.388 539.712 682.521 539.712 670.682C539.712 658.842 549.332 648.976 561.419 648.976C573.505 648.976 582.878 658.595 583.125 670.435V670.682ZM602.611 625.543L622.59 603.837H578.191C531.079 571.771 469.167 571.771 422.055 603.837H377.41L397.389 625.543C370.997 646.756 367.05 685.481 388.263 711.627C409.476 737.773 448.201 741.967 474.347 720.754C476.321 719.027 478.294 717.301 480.267 715.327L500 736.787L519.733 715.327C544.646 738.267 583.371 736.54 606.311 711.627C629.25 686.715 627.524 647.989 602.611 625.05V625.543ZM438.828 712.121C415.889 712.121 397.389 693.621 397.389 670.682C397.389 647.742 415.889 629.243 438.828 629.243C461.768 629.243 480.267 647.742 480.267 670.435C480.267 693.128 461.768 711.874 438.828 712.121ZM500 669.448C500 642.069 480.021 618.636 453.875 608.77C483.227 596.437 516.526 596.437 545.879 608.77C519.733 618.636 500 642.069 500 669.448ZM561.172 711.874C538.232 711.874 519.733 693.375 519.733 670.435C519.733 647.496 538.232 628.996 561.172 628.996C584.111 628.996 602.611 647.496 602.611 670.435C602.611 693.375 584.111 711.874 561.172 711.874Z" fill="black"/>
<path d="M400.546 854.638C400.546 854.638 379.286 837.944 340.921 833.21C317.706 830.718 294.247 836.449 274.453 849.156C274.453 849.156 300.112 859.87 338.966 863.856C377.82 867.843 400.546 854.638 400.546 854.638Z" fill="black"/>
<path d="M340.164 821.186C340.164 821.186 320.992 801.07 284.86 787.162C262.247 778.966 237.667 777.228 214.071 781.947C214.071 781.947 236.193 803.057 274.291 817.958C312.389 832.859 340.164 821.186 340.164 821.186Z" fill="black"/>
<path d="M283.333 774.03C283.333 774.03 272.033 746.095 242.309 718.159C223.394 700.948 200.057 689.475 175 685.234C175 685.234 188.511 715.415 220.446 745.097C252.381 774.779 283.333 774.03 283.333 774.03Z" fill="black"/>
<path d="M272.678 720.753C272.678 720.753 268.987 690.973 247.333 656.23C233.553 634.887 213.868 617.764 190.984 607.092C190.984 607.092 196.397 639.602 219.527 676.579C242.657 713.557 272.678 720.753 272.678 720.753Z" fill="black"/>
<path d="M272.678 649.716C272.678 649.716 271.705 619.267 253.722 582.133C242.299 559.358 224.801 540.296 203.415 527.175C203.415 527.175 205.845 560.596 225.044 599.957C244.244 639.319 272.678 649.716 272.678 649.716Z" fill="black"/>
<path d="M359.7 800.671C359.7 800.671 350.522 777.886 326.215 755.101C310.588 740.984 291.489 731.573 270.902 727.858C280.08 746.185 292.729 762.778 308.108 776.895C334.152 801.166 359.7 800.671 359.7 800.671Z" fill="black"/>
<path d="M420.082 834.216C409.921 825.16 398.067 818.062 385.487 813.411C371.697 808.026 356.697 806.558 341.94 808.761C353.311 818.306 366.133 825.649 379.68 831.034C403.389 840.335 420.082 834.216 420.082 834.216Z" fill="black"/>
<path d="M480.464 846.301C470.166 842.598 459.133 841.117 448.344 841.611C436.33 842.104 424.806 846.054 414.754 852.72C426.032 856.423 437.801 857.904 449.57 857.41C470.166 856.669 480.464 846.301 480.464 846.301Z" fill="black"/>
<path d="M333.06 745.617C333.06 745.617 328.881 721.511 309.954 694.453C297.909 677.727 281.194 664.69 262.021 656.819C267.183 676.497 276.032 695.191 287.831 711.918C307.987 740.943 333.06 745.617 333.06 745.617Z" fill="black"/>
<path d="M308.558 672.803C308.558 672.803 313.357 648.307 305.275 615.646C299.972 595.356 289.112 577.045 273.707 562.694C271.434 583.479 272.949 604.263 278 624.553C286.839 659.442 308.558 672.803 308.558 672.803Z" fill="black"/>
<path d="M599.453 854.638C599.453 854.638 620.713 837.944 659.078 833.21C682.293 830.718 705.752 836.449 725.546 849.156C725.546 849.156 699.888 859.87 661.033 863.856C622.179 867.843 599.453 854.638 599.453 854.638Z" fill="black"/>
<path d="M659.835 821.186C659.835 821.186 679.291 801.07 715.001 787.162C737.658 778.966 762.286 777.228 785.928 781.947C785.928 781.947 763.764 803.057 725.591 817.958C687.418 832.859 659.835 821.186 659.835 821.186Z" fill="black"/>
<path d="M716.667 774.03C716.667 774.03 727.967 746.095 757.691 718.159C776.606 700.948 799.943 689.475 825 685.234C825 685.234 811.489 715.415 779.554 745.097C747.619 774.779 716.667 774.03 716.667 774.03Z" fill="black"/>
<path d="M727.323 720.753C727.323 720.753 731.014 690.973 752.668 656.23C766.447 634.887 786.133 617.764 809.017 607.092C809.017 607.092 803.603 639.602 780.473 676.579C757.343 713.557 727.323 720.753 727.323 720.753Z" fill="black"/>
<path d="M727.323 649.716C727.323 649.716 728.295 619.267 746.279 582.133C757.701 559.358 775.199 540.296 796.585 527.175C796.585 527.175 794.155 560.596 774.956 599.957C755.757 639.319 727.323 649.716 727.323 649.716Z" fill="black"/>
<path d="M640.3 800.671C640.3 800.671 649.229 777.886 673.785 755.101C689.412 740.984 708.511 731.573 729.098 727.858C719.92 746.185 707.27 762.778 691.892 776.895C666.096 801.166 640.3 800.671 640.3 800.671Z" fill="black"/>
<path d="M579.918 834.216C590.079 825.16 601.933 818.062 614.514 813.411C628.303 808.026 643.303 806.558 658.06 808.761C646.69 818.306 633.868 825.649 620.32 831.034C596.611 840.335 579.918 834.216 579.918 834.216Z" fill="black"/>
<path d="M519.536 846.301C529.833 842.598 540.867 841.117 551.655 841.611C563.669 842.104 575.193 846.054 585.246 852.72C573.967 856.423 562.198 857.904 550.429 857.41C529.833 856.669 519.536 846.301 519.536 846.301Z" fill="black"/>
<path d="M666.94 745.617C666.94 745.617 671.118 721.511 690.046 694.453C702.09 677.727 718.805 664.69 737.978 656.819C732.816 676.497 723.967 695.191 712.168 711.918C692.012 740.943 666.94 745.617 666.94 745.617Z" fill="black"/>
<path d="M691.374 672.803C691.374 672.803 686.804 648.307 694.501 615.646C699.551 595.356 709.894 577.045 724.566 562.694C726.73 583.479 725.287 604.263 720.477 624.553C712.299 659.442 691.374 672.803 691.374 672.803Z" fill="black"/>
<path d="M288.757 193.832H267.365V257H250.789V193.832H229.397V178.6H288.757V193.832ZM323.911 201.672V216.568H315.623C309.649 216.568 306.663 219.555 306.663 225.528V257H290.983V201.672H305.543V211.976C306.14 208.467 307.484 205.891 309.575 204.248C311.74 202.531 314.241 201.672 317.079 201.672H323.911ZM337.182 194.616C334.419 194.616 332.067 193.683 330.126 191.816C328.259 189.875 327.326 187.523 327.326 184.76C327.326 181.997 328.259 179.683 330.126 177.816C332.067 175.875 334.419 174.904 337.182 174.904C339.945 174.904 342.259 175.875 344.126 177.816C346.067 179.683 347.038 181.997 347.038 184.76C347.038 187.523 346.067 189.875 344.126 191.816C342.259 193.683 339.945 194.616 337.182 194.616ZM329.342 201.672H345.022V257H329.342V201.672ZM354.248 201.672H368.808V207.832C370.451 205.517 372.84 203.651 375.976 202.232C379.187 200.813 382.808 200.104 386.84 200.104C391.843 200.104 396.398 201.411 400.504 204.024C404.611 206.637 407.822 210.184 410.136 214.664C412.451 219.069 413.608 223.96 413.608 229.336C413.608 234.712 412.414 239.64 410.024 244.12C407.635 248.525 404.35 252.035 400.168 254.648C395.987 257.261 391.32 258.568 386.168 258.568C382.51 258.568 379.262 257.971 376.424 256.776C373.662 255.507 371.496 253.864 369.928 251.848V279.4H354.248V201.672ZM383.368 244.008C387.475 244.008 390.91 242.664 393.672 239.976C396.51 237.213 397.928 233.667 397.928 229.336C397.928 225.005 396.51 221.496 393.672 218.808C390.91 216.045 387.475 214.664 383.368 214.664C379.262 214.664 375.79 216.045 372.952 218.808C370.19 221.496 368.808 225.005 368.808 229.336C368.808 233.667 370.19 237.213 372.952 239.976C375.79 242.664 379.262 244.008 383.368 244.008ZM443.922 258.568C438.845 258.568 434.253 257.261 430.146 254.648C426.04 252.035 422.792 248.525 420.402 244.12C418.088 239.64 416.93 234.712 416.93 229.336C416.93 223.96 418.088 219.069 420.402 214.664C422.792 210.184 426.077 206.637 430.258 204.024C434.44 201.411 439.144 200.104 444.37 200.104C448.178 200.104 451.538 200.664 454.45 201.784C457.362 202.904 459.789 204.435 461.73 206.376V201.672H476.29V257H461.73V250.28C459.789 252.893 457.4 254.947 454.562 256.44C451.725 257.859 448.178 258.568 443.922 258.568ZM447.17 244.008C451.277 244.008 454.712 242.664 457.474 239.976C460.312 237.213 461.73 233.667 461.73 229.336C461.73 225.005 460.312 221.496 457.474 218.808C454.712 216.045 451.277 214.664 447.17 214.664C443.064 214.664 439.592 216.045 436.754 218.808C433.992 221.496 432.61 225.005 432.61 229.336C432.61 233.667 433.992 237.213 436.754 239.976C439.592 242.664 443.064 244.008 447.17 244.008ZM509.516 258.568C504.439 258.568 499.847 257.261 495.74 254.648C491.633 252.035 488.385 248.525 485.996 244.12C483.681 239.64 482.524 234.712 482.524 229.336C482.524 223.96 483.681 219.069 485.996 214.664C488.385 210.184 491.671 206.637 495.852 204.024C500.033 201.411 504.737 200.104 509.964 200.104C513.697 200.104 516.945 200.701 519.708 201.896C522.471 203.016 524.636 204.509 526.204 206.376V178.6H541.884V257H527.324V250.28C525.383 252.893 522.993 254.947 520.156 256.44C517.319 257.859 513.772 258.568 509.516 258.568ZM512.764 244.008C516.871 244.008 520.305 242.664 523.068 239.976C525.905 237.213 527.324 233.667 527.324 229.336C527.324 225.005 525.905 221.496 523.068 218.808C520.305 216.045 516.871 214.664 512.764 214.664C508.657 214.664 505.185 216.045 502.348 218.808C499.585 221.496 498.204 225.005 498.204 229.336C498.204 233.667 499.585 237.213 502.348 239.976C505.185 242.664 508.657 244.008 512.764 244.008ZM547.222 201.672H564.022L572.422 230.904C573.243 233.741 573.952 236.467 574.55 239.08C575.147 236.467 575.856 233.741 576.678 230.904L585.078 201.672H601.878L583.51 257H565.59L547.222 201.672ZM615.057 194.616C612.295 194.616 609.943 193.683 608.001 191.816C606.135 189.875 605.201 187.523 605.201 184.76C605.201 181.997 606.135 179.683 608.001 177.816C609.943 175.875 612.295 174.904 615.057 174.904C617.82 174.904 620.135 175.875 622.001 177.816C623.943 179.683 624.913 181.997 624.913 184.76C624.913 187.523 623.943 189.875 622.001 191.816C620.135 193.683 617.82 194.616 615.057 194.616ZM607.217 201.672H622.897V257H607.217V201.672ZM651.051 258.568C647.019 258.568 643.323 257.784 639.963 256.216C636.678 254.573 634.065 252.259 632.123 249.272C630.182 246.285 629.211 242.813 629.211 238.856H645.115C645.115 240.797 645.675 242.365 646.795 243.56C647.915 244.68 649.409 245.24 651.275 245.24C653.142 245.24 654.598 244.829 655.643 244.008C656.689 243.187 657.211 242.067 657.211 240.648C657.211 239.155 656.614 237.96 655.419 237.064C654.225 236.093 652.321 235.235 649.707 234.488L642.427 232.36C638.619 231.24 635.595 229.373 633.355 226.76C631.19 224.147 630.107 220.899 630.107 217.016C630.107 213.731 631.003 210.819 632.795 208.28C634.662 205.667 637.163 203.651 640.299 202.232C643.435 200.813 646.907 200.104 650.715 200.104C657.062 200.104 661.99 201.747 665.499 205.032C669.083 208.243 670.875 212.499 670.875 217.8H656.091C656.091 216.381 655.569 215.149 654.523 214.104C653.553 213.059 652.246 212.536 650.603 212.536C649.035 212.536 647.766 212.909 646.795 213.656C645.825 214.403 645.339 215.336 645.339 216.456C645.339 217.725 645.825 218.733 646.795 219.48C647.766 220.152 649.409 220.824 651.723 221.496L659.787 223.736C663.67 224.781 666.731 226.611 668.971 229.224C671.211 231.763 672.331 235.048 672.331 239.08C672.331 242.589 671.435 245.837 669.643 248.824C667.926 251.811 665.462 254.2 662.251 255.992C659.041 257.709 655.307 258.568 651.051 258.568ZM705.569 258.568C699.67 258.568 694.443 257.299 689.889 254.76C685.409 252.147 681.899 248.6 679.361 244.12C676.897 239.64 675.665 234.712 675.665 229.336C675.665 223.96 676.897 219.032 679.361 214.552C681.899 210.072 685.409 206.563 689.889 204.024C694.443 201.411 699.67 200.104 705.569 200.104C711.467 200.104 716.657 201.411 721.137 204.024C725.691 206.563 729.201 210.072 731.665 214.552C734.203 219.032 735.473 223.96 735.473 229.336C735.473 234.712 734.203 239.64 731.665 244.12C729.201 248.6 725.691 252.147 721.137 254.76C716.657 257.299 711.467 258.568 705.569 258.568ZM705.569 244.008C709.675 244.008 713.073 242.664 715.761 239.976C718.449 237.213 719.793 233.667 719.793 229.336C719.793 225.005 718.449 221.496 715.761 218.808C713.073 216.045 709.675 214.664 705.569 214.664C701.462 214.664 698.065 216.045 695.377 218.808C692.689 221.496 691.345 225.005 691.345 229.336C691.345 233.667 692.689 237.213 695.377 239.976C698.065 242.664 701.462 244.008 705.569 244.008ZM774.692 201.672V216.568H766.404C760.431 216.568 757.444 219.555 757.444 225.528V257H741.764V201.672H756.324V211.976C756.921 208.467 758.265 205.891 760.356 204.248C762.521 202.531 765.023 201.672 767.86 201.672H774.692ZM311.577 282.336H287.833V352H278.201V282.336H254.457V273.6H311.577V282.336ZM339.859 296.672V305.184H328.771C323.021 305.184 320.147 308.096 320.147 313.92V352H310.963V296.672H319.475V304.512C320.072 301.899 321.267 299.957 323.059 298.688C324.851 297.344 327.053 296.672 329.667 296.672H339.859ZM372.519 353.568C367.367 353.568 362.663 352.299 358.407 349.76C354.151 347.147 350.791 343.637 348.327 339.232C345.938 334.752 344.743 329.787 344.743 324.336C344.743 318.96 346.012 314.032 348.551 309.552C351.09 305.072 354.487 301.563 358.743 299.024C363.074 296.411 367.74 295.104 372.743 295.104C377.372 295.104 381.442 296 384.951 297.792C388.535 299.509 391.41 301.824 393.575 304.736V296.672H402.087V352H393.575V342.48C391.41 345.84 388.535 348.528 384.951 350.544C381.367 352.56 377.223 353.568 372.519 353.568ZM373.751 345.28C377.26 345.28 380.508 344.421 383.495 342.704C386.556 340.912 388.983 338.448 390.775 335.312C392.642 332.101 393.575 328.443 393.575 324.336C393.575 320.229 392.642 316.608 390.775 313.472C388.983 310.261 386.556 307.797 383.495 306.08C380.508 304.288 377.26 303.392 373.751 303.392C370.092 303.392 366.732 304.251 363.671 305.968C360.684 307.685 358.295 310.149 356.503 313.36C354.786 316.571 353.927 320.229 353.927 324.336C353.927 328.443 354.786 332.101 356.503 335.312C358.295 338.523 360.684 340.987 363.671 342.704C366.732 344.421 370.092 345.28 373.751 345.28ZM411.045 296.672H420.789L433.781 335.76C434.751 338.896 435.423 341.173 435.797 342.592C436.17 341.173 436.842 338.896 437.813 335.76L450.805 296.672H460.549L441.061 352H430.533L411.045 296.672ZM519.438 325.792H473.63C473.63 329.824 474.452 333.333 476.094 336.32C477.812 339.307 480.089 341.584 482.926 343.152C485.764 344.72 488.9 345.504 492.334 345.504C496.74 345.504 500.436 344.421 503.422 342.256C506.409 340.091 508.5 337.253 509.694 333.744H518.43C516.788 339.717 513.652 344.533 509.022 348.192C504.468 351.776 498.905 353.568 492.334 353.568C486.958 353.568 482.142 352.336 477.886 349.872C473.63 347.333 470.308 343.861 467.918 339.456C465.604 334.976 464.446 329.936 464.446 324.336C464.446 318.736 465.641 313.733 468.03 309.328C470.494 304.848 473.854 301.376 478.11 298.912C482.366 296.373 487.07 295.104 492.222 295.104C497.673 295.104 502.452 296.261 506.558 298.576C510.665 300.816 513.838 304.027 516.078 308.208C518.318 312.389 519.438 317.28 519.438 322.88V325.792ZM492.11 302.944C487.556 302.944 483.673 304.325 480.462 307.088C477.252 309.776 475.161 313.547 474.19 318.4H510.478C509.881 313.621 507.94 309.851 504.654 307.088C501.369 304.325 497.188 302.944 492.11 302.944ZM531.119 273.6H540.303V352H531.119V273.6ZM555.806 273.6H564.99V352H555.806V273.6ZM631.454 325.792H585.646C585.646 329.824 586.467 333.333 588.11 336.32C589.827 339.307 592.104 341.584 594.942 343.152C597.779 344.72 600.915 345.504 604.35 345.504C608.755 345.504 612.451 344.421 615.438 342.256C618.424 340.091 620.515 337.253 621.71 333.744H630.446C628.803 339.717 625.667 344.533 621.038 348.192C616.483 351.776 610.92 353.568 604.35 353.568C598.974 353.568 594.158 352.336 589.902 349.872C585.646 347.333 582.323 343.861 579.934 339.456C577.619 334.976 576.462 329.936 576.462 324.336C576.462 318.736 577.656 313.733 580.046 309.328C582.51 304.848 585.87 301.376 590.126 298.912C594.382 296.373 599.086 295.104 604.238 295.104C609.688 295.104 614.467 296.261 618.574 298.576C622.68 300.816 625.854 304.027 628.094 308.208C630.334 312.389 631.454 317.28 631.454 322.88V325.792ZM604.126 302.944C599.571 302.944 595.688 304.325 592.478 307.088C589.267 309.776 587.176 313.547 586.206 318.4H622.494C621.896 313.621 619.955 309.851 616.67 307.088C613.384 304.325 609.203 302.944 604.126 302.944ZM672.03 296.672V305.184H660.942C655.193 305.184 652.318 308.096 652.318 313.92V352H643.134V296.672H651.646V304.512C652.244 301.899 653.438 299.957 655.23 298.688C657.022 297.344 659.225 296.672 661.838 296.672H672.03ZM700.158 353.568C693.812 353.568 688.772 351.776 685.038 348.192C681.38 344.533 679.55 339.829 679.55 334.08H688.734C688.734 337.365 689.742 340.091 691.758 342.256C693.849 344.421 696.649 345.504 700.158 345.504C703.369 345.504 706.02 344.683 708.11 343.04C710.201 341.397 711.246 339.269 711.246 336.656C711.246 334.341 710.537 332.512 709.118 331.168C707.7 329.824 705.273 328.667 701.838 327.696L693.662 325.344C689.705 324.149 686.569 322.283 684.254 319.744C682.014 317.205 680.894 314.107 680.894 310.448C680.894 305.819 682.724 302.123 686.382 299.36C690.041 296.523 694.558 295.104 699.934 295.104C703.593 295.104 706.804 295.813 709.566 297.232C712.404 298.651 714.606 300.592 716.174 303.056C717.742 305.52 718.526 308.283 718.526 311.344H709.79C709.79 308.955 708.82 306.976 706.878 305.408C705.012 303.765 702.697 302.944 699.934 302.944C697.022 302.944 694.596 303.579 692.654 304.848C690.788 306.117 689.854 307.835 689.854 310C689.854 312.016 690.564 313.696 691.982 315.04C693.476 316.309 695.828 317.429 699.038 318.4L707.214 320.864C716.025 323.477 720.43 328.48 720.43 335.872C720.43 339.232 719.534 342.256 717.742 344.944C716.025 347.632 713.598 349.76 710.462 351.328C707.401 352.821 703.966 353.568 700.158 353.568ZM730.983 291.856H731.879C734.045 291.856 735.725 291.296 736.919 290.176C738.114 289.056 738.823 287.227 739.047 284.688C738.599 284.987 737.89 285.136 736.919 285.136C735.202 285.136 733.746 284.539 732.551 283.344C731.357 282.075 730.759 280.507 730.759 278.64C730.759 276.773 731.357 275.205 732.551 273.936C733.821 272.667 735.389 272.032 737.255 272.032C739.57 272.032 741.362 272.965 742.631 274.832C743.975 276.624 744.647 279.163 744.647 282.448C744.647 287.301 743.565 290.997 741.399 293.536C739.309 296 736.285 297.232 732.327 297.232H730.983V291.856ZM168.219 448.568C161.574 448.568 155.302 446.963 149.403 443.752C143.579 440.467 138.875 435.763 135.291 429.64C131.707 423.443 129.915 416.163 129.915 407.8C129.915 399.512 131.707 392.269 135.291 386.072C138.875 379.875 143.579 375.171 149.403 371.96C155.302 368.675 161.574 367.032 168.219 367.032C174.267 367.032 179.83 368.227 184.907 370.616C190.059 372.931 194.278 376.291 197.563 380.696C200.923 385.027 203.088 390.104 204.059 395.928H194.427C193.008 389.656 189.872 384.728 185.019 381.144C180.166 377.56 174.566 375.768 168.219 375.768C163.216 375.768 158.512 377.037 154.107 379.576C149.776 382.04 146.267 385.699 143.579 390.552C140.891 395.331 139.547 401.08 139.547 407.8C139.547 414.52 140.891 420.307 143.579 425.16C146.267 429.939 149.776 433.597 154.107 436.136C158.512 438.6 163.216 439.832 168.219 439.832C174.715 439.832 180.352 438.04 185.131 434.456C189.91 430.872 193.008 425.907 194.427 419.56H204.059C203.088 425.384 200.886 430.499 197.451 434.904C194.091 439.309 189.872 442.707 184.795 445.096C179.718 447.411 174.192 448.568 168.219 448.568ZM215.291 368.6H224.475V399.064C225.893 396.6 228.171 394.509 231.307 392.792C234.443 391 238.064 390.104 242.171 390.104C248.069 390.104 252.773 392.083 256.283 396.04C259.867 399.997 261.659 405.187 261.659 411.608V447H252.475V412.728C252.475 408.248 251.168 404.701 248.555 402.088C245.941 399.475 242.619 398.168 238.587 398.168C234.555 398.168 231.195 399.475 228.507 402.088C225.819 404.701 224.475 408.248 224.475 412.728V447H215.291V368.6ZM302.256 448.568C296.731 448.568 291.728 447.299 287.248 444.76C282.843 442.147 279.371 438.637 276.832 434.232C274.294 429.752 273.024 424.787 273.024 419.336C273.024 413.885 274.294 408.957 276.832 404.552C279.371 400.072 282.843 396.563 287.248 394.024C291.728 391.411 296.731 390.104 302.256 390.104C307.782 390.104 312.747 391.411 317.152 394.024C321.632 396.563 325.142 400.072 327.68 404.552C330.219 408.957 331.488 413.885 331.488 419.336C331.488 424.787 330.219 429.752 327.68 434.232C325.142 438.637 321.632 442.147 317.152 444.76C312.747 447.299 307.782 448.568 302.256 448.568ZM302.256 440.28C305.915 440.28 309.275 439.421 312.336 437.704C315.398 435.987 317.824 433.56 319.616 430.424C321.408 427.213 322.304 423.517 322.304 419.336C322.304 415.155 321.408 411.496 319.616 408.36C317.824 405.149 315.398 402.685 312.336 400.968C309.275 399.251 305.915 398.392 302.256 398.392C298.598 398.392 295.238 399.251 292.176 400.968C289.115 402.685 286.688 405.149 284.896 408.36C283.104 411.496 282.208 415.155 282.208 419.336C282.208 423.517 283.104 427.213 284.896 430.424C286.688 433.56 289.115 435.987 292.176 437.704C295.238 439.421 298.598 440.28 302.256 440.28ZM347.57 382.264C345.704 382.264 344.098 381.592 342.754 380.248C341.41 378.904 340.738 377.299 340.738 375.432C340.738 373.491 341.373 371.885 342.642 370.616C343.986 369.272 345.629 368.6 347.57 368.6C349.512 368.6 351.117 369.272 352.386 370.616C353.73 371.885 354.402 373.491 354.402 375.432C354.402 377.373 353.73 379.016 352.386 380.36C351.117 381.629 349.512 382.264 347.57 382.264ZM342.978 391.672H352.162V447H342.978V391.672ZM391.858 448.568C386.482 448.568 381.628 447.299 377.298 444.76C373.042 442.221 369.682 438.749 367.218 434.344C364.828 429.864 363.634 424.861 363.634 419.336C363.634 413.811 364.866 408.845 367.33 404.44C369.794 399.96 373.154 396.451 377.41 393.912C381.74 391.373 386.556 390.104 391.858 390.104C399.1 390.104 404.999 391.896 409.554 395.48C414.183 398.989 417.02 403.805 418.066 409.928H408.882C407.836 406.493 405.82 403.731 402.834 401.64C399.847 399.475 396.188 398.392 391.858 398.392C388.348 398.392 385.138 399.251 382.226 400.968C379.388 402.685 377.111 405.149 375.394 408.36C373.676 411.496 372.818 415.155 372.818 419.336C372.818 423.517 373.676 427.213 375.394 430.424C377.111 433.56 379.426 435.987 382.338 437.704C385.25 439.421 388.423 440.28 391.858 440.28C396.338 440.28 399.996 439.272 402.834 437.256C405.671 435.24 407.687 432.403 408.882 428.744H418.066C416.722 434.941 413.772 439.795 409.218 443.304C404.663 446.813 398.876 448.568 391.858 448.568ZM480.61 420.792H434.802C434.802 424.824 435.623 428.333 437.266 431.32C438.983 434.307 441.261 436.584 444.098 438.152C446.935 439.72 450.071 440.504 453.506 440.504C457.911 440.504 461.607 439.421 464.594 437.256C467.581 435.091 469.671 432.253 470.866 428.744H479.602C477.959 434.717 474.823 439.533 470.194 443.192C465.639 446.776 460.077 448.568 453.506 448.568C448.13 448.568 443.314 447.336 439.058 444.872C434.802 442.333 431.479 438.861 429.09 434.456C426.775 429.976 425.618 424.936 425.618 419.336C425.618 413.736 426.813 408.733 429.202 404.328C431.666 399.848 435.026 396.376 439.282 393.912C443.538 391.373 448.242 390.104 453.394 390.104C458.845 390.104 463.623 391.261 467.73 393.576C471.837 395.816 475.01 399.027 477.25 403.208C479.49 407.389 480.61 412.28 480.61 417.88V420.792ZM453.282 397.944C448.727 397.944 444.845 399.325 441.634 402.088C438.423 404.776 436.333 408.547 435.362 413.4H471.65C471.053 408.621 469.111 404.851 465.826 402.088C462.541 399.325 458.359 397.944 453.282 397.944ZM560.708 426.616H524.868L517.14 447H507.172L537.3 368.6H548.276L578.404 447H568.436L560.708 426.616ZM557.46 417.88L544.804 384.616C543.759 381.928 543.087 380.136 542.788 379.24C542.489 380.136 541.817 381.928 540.772 384.616L528.116 417.88H557.46ZM578.487 391.672H588.231L596.743 429.864L597.415 432.888C597.863 434.381 598.199 435.875 598.423 437.368C598.871 434.904 599.394 432.403 599.991 429.864L610.071 391.672H619.479L629.559 429.864C630.231 432.403 630.754 434.904 631.127 437.368C631.351 435.875 631.687 434.381 632.135 432.888L632.807 429.864L641.319 391.672H651.063L636.503 447H625.975L616.119 409.928C615.522 407.539 615.074 405.373 614.775 403.432C614.477 405.373 614.029 407.539 613.431 409.928L603.575 447H593.047L578.487 391.672ZM682.957 448.568C677.805 448.568 673.101 447.299 668.845 444.76C664.589 442.147 661.229 438.637 658.765 434.232C656.375 429.752 655.181 424.787 655.181 419.336C655.181 413.96 656.45 409.032 658.989 404.552C661.527 400.072 664.925 396.563 669.181 394.024C673.511 391.411 678.178 390.104 683.181 390.104C687.81 390.104 691.879 391 695.389 392.792C698.973 394.509 701.847 396.824 704.013 399.736V391.672H712.525V447H704.013V437.48C701.847 440.84 698.973 443.528 695.389 445.544C691.805 447.56 687.661 448.568 682.957 448.568ZM684.189 440.28C687.698 440.28 690.946 439.421 693.933 437.704C696.994 435.912 699.421 433.448 701.213 430.312C703.079 427.101 704.013 423.443 704.013 419.336C704.013 415.229 703.079 411.608 701.213 408.472C699.421 405.261 696.994 402.797 693.933 401.08C690.946 399.288 687.698 398.392 684.189 398.392C680.53 398.392 677.17 399.251 674.109 400.968C671.122 402.685 668.733 405.149 666.941 408.36C665.223 411.571 664.365 415.229 664.365 419.336C664.365 423.443 665.223 427.101 666.941 430.312C668.733 433.523 671.122 435.987 674.109 437.704C677.17 439.421 680.53 440.28 684.189 440.28ZM756.874 391.672V400.184H745.786C740.037 400.184 737.162 403.096 737.162 408.92V447H727.978V391.672H736.49V399.512C737.088 396.899 738.282 394.957 740.074 393.688C741.866 392.344 744.069 391.672 746.682 391.672H756.874ZM789.535 448.568C784.383 448.568 779.679 447.299 775.423 444.76C771.167 442.147 767.807 438.637 765.343 434.232C762.953 429.752 761.759 424.787 761.759 419.336C761.759 413.96 763.028 409.032 765.567 404.552C768.105 400.072 771.503 396.563 775.759 394.024C780.089 391.411 784.756 390.104 789.759 390.104C794.313 390.104 798.308 391 801.743 392.792C805.252 394.509 807.977 396.675 809.919 399.288V368.6H819.103V447H810.591V437.48C808.425 440.84 805.551 443.528 801.967 445.544C798.383 447.56 794.239 448.568 789.535 448.568ZM790.767 440.28C794.276 440.28 797.524 439.421 800.511 437.704C803.572 435.912 805.999 433.448 807.791 430.312C809.657 427.101 810.591 423.443 810.591 419.336C810.591 415.229 809.657 411.608 807.791 408.472C805.999 405.261 803.572 402.797 800.511 401.08C797.524 399.288 794.276 398.392 790.767 398.392C787.108 398.392 783.748 399.251 780.687 400.968C777.7 402.685 775.311 405.149 773.519 408.36C771.801 411.571 770.943 415.229 770.943 419.336C770.943 423.443 771.801 427.101 773.519 430.312C775.311 433.523 777.7 435.987 780.687 437.704C783.748 439.421 787.108 440.28 790.767 440.28ZM851.58 448.568C845.234 448.568 840.194 446.776 836.46 443.192C832.802 439.533 830.972 434.829 830.972 429.08H840.156C840.156 432.365 841.164 435.091 843.18 437.256C845.271 439.421 848.071 440.504 851.58 440.504C854.791 440.504 857.442 439.683 859.532 438.04C861.623 436.397 862.668 434.269 862.668 431.656C862.668 429.341 861.959 427.512 860.54 426.168C859.122 424.824 856.695 423.667 853.26 422.696L845.084 420.344C841.127 419.149 837.991 417.283 835.676 414.744C833.436 412.205 832.316 409.107 832.316 405.448C832.316 400.819 834.146 397.123 837.804 394.36C841.463 391.523 845.98 390.104 851.356 390.104C855.015 390.104 858.226 390.813 860.988 392.232C863.826 393.651 866.028 395.592 867.596 398.056C869.164 400.52 869.948 403.283 869.948 406.344H861.212C861.212 403.955 860.242 401.976 858.3 400.408C856.434 398.765 854.119 397.944 851.356 397.944C848.444 397.944 846.018 398.579 844.076 399.848C842.21 401.117 841.276 402.835 841.276 405C841.276 407.016 841.986 408.696 843.404 410.04C844.898 411.309 847.25 412.429 850.46 413.4L858.636 415.864C867.447 418.477 871.852 423.48 871.852 430.872C871.852 434.232 870.956 437.256 869.164 439.944C867.447 442.632 865.02 444.76 861.884 446.328C858.823 447.821 855.388 448.568 851.58 448.568Z" fill="black"/>
<path d="M403.281 925.744L424.593 906.352C426.065 905.072 427.153 903.824 427.857 902.608C428.561 901.328 428.913 899.984 428.913 898.576C428.913 896.848 428.369 895.536 427.281 894.64C426.193 893.68 424.753 893.2 422.961 893.2C421.233 893.2 419.793 893.776 418.641 894.928C417.553 896.08 416.977 897.552 416.913 899.344H403.473C403.473 896.144 404.209 893.2 405.681 890.512C407.217 887.76 409.457 885.552 412.401 883.888C415.409 882.224 419.025 881.392 423.249 881.392C429.329 881.392 434.193 882.864 437.841 885.808C441.489 888.752 443.313 892.752 443.313 897.808C443.313 901.392 442.481 904.496 440.817 907.12C439.153 909.744 436.721 912.368 433.521 914.992L424.977 922H443.793V934H403.281V925.744ZM474.233 935.344C468.857 935.344 464.057 934.16 459.833 931.792C455.673 929.36 452.441 926.096 450.137 922C447.833 917.904 446.681 913.36 446.681 908.368C446.681 903.376 447.833 898.832 450.137 894.736C452.441 890.64 455.673 887.408 459.833 885.04C464.057 882.608 468.857 881.392 474.233 881.392C479.609 881.392 484.377 882.608 488.537 885.04C492.761 887.408 496.025 890.64 498.329 894.736C500.633 898.832 501.785 903.376 501.785 908.368C501.785 913.36 500.633 917.904 498.329 922C496.025 926.096 492.761 929.36 488.537 931.792C484.377 934.16 479.609 935.344 474.233 935.344ZM474.233 922.48C478.201 922.48 481.465 921.2 484.025 918.64C486.649 916.016 487.961 912.592 487.961 908.368C487.961 904.144 486.649 900.752 484.025 898.192C481.465 895.568 478.201 894.256 474.233 894.256C470.265 894.256 466.969 895.568 464.345 898.192C461.785 900.752 460.505 904.144 460.505 908.368C460.505 912.592 461.785 916.016 464.345 918.64C466.969 921.2 470.265 922.48 474.233 922.48ZM504 925.744L525.312 906.352C526.784 905.072 527.872 903.824 528.576 902.608C529.28 901.328 529.632 899.984 529.632 898.576C529.632 896.848 529.088 895.536 528 894.64C526.912 893.68 525.472 893.2 523.68 893.2C521.952 893.2 520.512 893.776 519.36 894.928C518.272 896.08 517.696 897.552 517.632 899.344H504.192C504.192 896.144 504.928 893.2 506.4 890.512C507.936 887.76 510.176 885.552 513.12 883.888C516.128 882.224 519.744 881.392 523.968 881.392C530.048 881.392 534.912 882.864 538.56 885.808C542.208 888.752 544.032 892.752 544.032 897.808C544.032 901.392 543.2 904.496 541.536 907.12C539.872 909.744 537.44 912.368 534.24 914.992L525.696 922H544.512V934H504V925.744ZM575.137 930.64H547.681V921.424L573.793 882.64H589.441V920.08H597.025V930.64H589.441V945.808H575.137V930.64ZM575.137 920.08V905.776C575.137 903.92 575.265 901.904 575.521 899.728L562.177 920.08H575.137Z" fill="black"/>
</svg>
