<?xml version="1.0" encoding="UTF-8"?>
<svg width="24px" height="24px" viewBox="0 0 24 24" version="1.1" xmlns="http://www.w3.org/2000/svg" xmlns:xlink="http://www.w3.org/1999/xlink">
    <title>google pay</title>
    <g id="google-pay" stroke="none" stroke-width="1" fill="none" fill-rule="evenodd">
        <g id="google-pay-mark_800" transform="translate(1.000000, 6.000000)" fill-rule="nonzero">
            <path d="M16.1489362,0 L5.85106383,0 C2.63297872,0 0,2.63297872 0,5.85106383 L0,5.85106383 C0,9.06914894 2.63297872,11.7021277 5.85106383,11.7021277 L16.1489362,11.7021277 C19.3670213,11.7021277 22,9.06914894 22,5.85106383 L22,5.85106383 C22,2.63297872 19.3670213,0 16.1489362,0 Z" id="Base_1_" fill="#FFFFFF"></path>
            <path d="M16.1489362,0.47393617 C16.8715426,0.47393617 17.5736702,0.617287234 18.2348404,0.898138298 C18.8755319,1.17021277 19.4489362,1.55930851 19.9462766,2.0537234 C20.4406915,2.5481383 20.8297872,3.12446809 21.1018617,3.76515957 C21.3827128,4.42632979 21.5260638,5.12845745 21.5260638,5.85106383 C21.5260638,6.57367021 21.3827128,7.27579787 21.1018617,7.93696809 C20.8297872,8.57765957 20.4406915,9.15106383 19.9462766,9.64840426 C19.4518617,10.1428191 18.8755319,10.5319149 18.2348404,10.8039894 C17.5736702,11.0848404 16.8715426,11.2281915 16.1489362,11.2281915 L5.85106383,11.2281915 C5.12845745,11.2281915 4.42632979,11.0848404 3.76515957,10.8039894 C3.12446809,10.5319149 2.55106383,10.1428191 2.0537234,9.64840426 C1.55930851,9.15398936 1.17021277,8.57765957 0.898138298,7.93696809 C0.617287234,7.27579787 0.47393617,6.57367021 0.47393617,5.85106383 C0.47393617,5.12845745 0.617287234,4.42632979 0.898138298,3.76515957 C1.17021277,3.12446809 1.55930851,2.55106383 2.0537234,2.0537234 C2.5481383,1.55930851 3.12446809,1.17021277 3.76515957,0.898138298 C4.42632979,0.617287234 5.12845745,0.47393617 5.85106383,0.47393617 L16.1489362,0.47393617 M16.1489362,0 L5.85106383,0 C2.63297872,0 0,2.63297872 0,5.85106383 L0,5.85106383 C0,9.06914894 2.63297872,11.7021277 5.85106383,11.7021277 L16.1489362,11.7021277 C19.3670213,11.7021277 22,9.06914894 22,5.85106383 L22,5.85106383 C22,2.63297872 19.3670213,0 16.1489362,0 L16.1489362,0 Z" id="Outline" fill="#3C4043"></path>
            <g id="G_Pay_Lockup_1_" transform="translate(3.349734, 3.346809)">
                <g id="Pay_Typeface_3_" transform="translate(6.579521, 0.318883)" fill="#3C4043">
                    <path d="M0.561702128,2.60079787 L0.561702128,4.37074468 L-3.32594472e-15,4.37074468 L-3.32594472e-15,0 L1.48909574,0 C1.86648936,0 2.18829787,0.125797872 2.45159574,0.377393617 C2.72074468,0.628989362 2.85531915,0.936170213 2.85531915,1.29893617 C2.85531915,1.67047872 2.72074468,1.97765957 2.45159574,2.22632979 C2.1912234,2.475 1.86941489,2.59787234 1.48909574,2.59787234 L0.561702128,2.59787234 L0.561702128,2.60079787 Z M0.561702128,0.538297872 L0.561702128,2.0625 L1.50079787,2.0625 C1.7231383,2.0625 1.91037234,1.98643617 2.05664894,1.83723404 C2.20585106,1.68803191 2.28191489,1.50664894 2.28191489,1.3018617 C2.28191489,1.1 2.20585106,0.921542553 2.05664894,0.772340426 C1.91037234,0.617287234 1.72606383,0.541223404 1.50079787,0.541223404 L0.561702128,0.541223404 L0.561702128,0.538297872 Z" id="Letter_p_3_"></path>
                    <path d="M4.32393617,1.28138298 C4.7393617,1.28138298 5.06702128,1.39255319 5.30691489,1.61489362 C5.54680851,1.83723404 5.66675532,2.14148936 5.66675532,2.52765957 L5.66675532,4.37074468 L5.13138298,4.37074468 L5.13138298,3.95531915 L5.10797872,3.95531915 C4.8768617,4.29760638 4.56675532,4.46728723 4.18058511,4.46728723 C3.85,4.46728723 3.575,4.37074468 3.35265957,4.17473404 C3.13031915,3.9787234 3.01914894,3.73590426 3.01914894,3.44335106 C3.01914894,3.13324468 3.13617021,2.8875 3.37021277,2.70611702 C3.60425532,2.52180851 3.91728723,2.43111702 4.30638298,2.43111702 C4.63989362,2.43111702 4.91489362,2.49255319 5.12845745,2.61542553 L5.12845745,2.48670213 C5.12845745,2.29069149 5.05239362,2.1268617 4.89734043,1.9893617 C4.74228723,1.8518617 4.56090426,1.78457447 4.35319149,1.78457447 C4.04015957,1.78457447 3.79148936,1.9162234 3.61010638,2.18244681 L3.11569149,1.87234043 C3.38776596,1.47739362 3.79148936,1.28138298 4.32393617,1.28138298 Z M3.59840426,3.45212766 C3.59840426,3.59840426 3.65984043,3.7212766 3.7856383,3.81781915 C3.90851064,3.9143617 4.05478723,3.96409574 4.22154255,3.96409574 C4.45851064,3.96409574 4.66914894,3.87632979 4.85345745,3.70079787 C5.03776596,3.52526596 5.13138298,3.32047872 5.13138298,3.08351064 C4.95585106,2.94601064 4.71303191,2.87579787 4.4,2.87579787 C4.17180851,2.87579787 3.98164894,2.93138298 3.82952128,3.03962766 C3.67446809,3.1537234 3.59840426,3.2912234 3.59840426,3.45212766 Z" id="Letter_a_3_"></path>
                    <polygon id="Letter_y_3_" points="8.72101064 1.37792553 6.84867021 5.68430851 6.26941489 5.68430851 6.96569149 4.17765957 5.73111702 1.37792553 6.34255319 1.37792553 7.23191489 3.52526596 7.24361702 3.52526596 8.10957447 1.37792553"></polygon>
                </g>
                <g id="G_Mark_1_">
                    <path d="M4.90699468,2.56276596 C4.90699468,2.37962766 4.8906117,2.2043883 4.86018617,2.03587766 L2.50571809,2.03587766 L2.50571809,3.00130319 L3.86170213,3.00159574 C3.80670213,3.32281915 3.62970745,3.59664894 3.35851064,3.77920213 L3.35851064,4.40555851 L4.16566489,4.40555851 C4.63696809,3.9693617 4.90699468,3.32457447 4.90699468,2.56276596 Z" id="Blue_500" fill="#4285F4"></path>
                    <path d="M3.35880319,3.77920213 C3.13412234,3.93074468 2.84478723,4.0193883 2.50630319,4.0193883 C1.85244681,4.0193883 1.29776596,3.57880319 1.09912234,2.98492021 L0.266515957,2.98492021 L0.266515957,3.63087766 C0.679015957,4.44944149 1.52683511,5.01114362 2.50630319,5.01114362 C3.18327128,5.01114362 3.75199468,4.78851064 4.16595745,4.40526596 L3.35880319,3.77920213 Z" id="Green_500_1_" fill="#34A853"></path>
                    <path d="M1.02071809,2.50571809 C1.02071809,2.33896277 1.04851064,2.17776596 1.09912234,2.0262234 L1.09912234,1.38026596 L0.266515957,1.38026596 C0.0959574468,1.71875 -1.66297236e-15,2.10082447 -1.66297236e-15,2.50571809 C-1.66297236e-15,2.9106117 0.09625,3.29268617 0.266515957,3.63117021 L1.09912234,2.98521277 C1.04851064,2.83367021 1.02071809,2.6724734 1.02071809,2.50571809 Z" id="Yellow_500_1_" fill="#FABB05"></path>
                    <path d="M2.50630319,0.991755319 C2.87579787,0.991755319 3.20667553,1.11901596 3.46792553,1.36768617 L4.18321809,0.652978723 C3.7487766,0.24837766 3.18239362,1.66297236e-15 2.50630319,1.66297236e-15 C1.52712766,1.66297236e-15 0.679015957,0.561702128 0.266515957,1.38026596 L1.09912234,2.0262234 C1.29776596,1.43234043 1.85244681,0.991755319 2.50630319,0.991755319 Z" id="Red_500" fill="#E94235"></path>
                </g>
            </g>
        </g>
    </g>
</svg>