<?xml version="1.0" encoding="UTF-8"?>
<svg width="24px" height="24px" viewBox="0 0 24 24" version="1.1" xmlns="http://www.w3.org/2000/svg" xmlns:xlink="http://www.w3.org/1999/xlink">
    <title>Icons/24/Payment/Credit - Card</title>
    <g id="Icons/24/Payment/Credit---Card" stroke="none" stroke-width="1" fill="none" fill-rule="evenodd">
        <path d="M6.07809465,17.5 C5.14395877,17.5 4.3858195,16.7533333 4.38497266,15.8333333 C4.38412723,14.9133333 5.14142036,14.1666667 6.07555624,14.1666667 C7.01053826,14.1666667 7.76867753,14.9133333 7.76952437,15.8333333 C7.7703698,16.7533333 7.01223053,17.5 6.07809465,17.5 L6.07809465,17.5 Z M23,10 L23,18.3341667 C23,19.2541667 22.2427069,20 21.308571,20 L21.308571,20 L2.69185208,20 C1.7577162,20 1.00042307,19.2541667 1.00042307,18.3341667 L1.00042307,18.3341667 L1.00042307,10 L23,10 Z M21.3081479,5 C22.2422838,5 22.9995769,5.74583333 22.9995769,6.66583333 L22.9995769,6.66583333 L22.9995769,8.33333333 L1,8.33333333 L1,6.66583333 C1,5.74583333 1.75729313,5 2.69142901,5 L2.69142901,5 Z" id="Combined-Shape" fill="#FF8000"></path>
    </g>
</svg>