<?xml version="1.0" encoding="UTF-8"?>
<svg width="24px" height="24px" viewBox="0 0 24 24" version="1.1" xmlns="http://www.w3.org/2000/svg" xmlns:xlink="http://www.w3.org/1999/xlink">
    <title>Icons/24/Payment/TakeawayPay - Solid</title>
    <g id="Icons/24/Payment/TakeawayPay---Solid" stroke="none" stroke-width="1" fill="none" fill-rule="evenodd">
        <g id="Takeaway-Pay-logo-checkout" transform="translate(1.000000, 4.000000)" fill-rule="nonzero">
            <path d="M15.4350625,8.0355 C15.371125,7.9674375 15.294125,7.9138125 15.2040625,7.8753125 C15.1133125,7.836125 15.010875,7.816875 14.895375,7.816875 C14.7805625,7.816875 14.6774375,7.836125 14.5866875,7.8753125 C14.496625,7.9145 14.419625,7.9674375 14.3556875,8.0355 C14.2924375,8.1035625 14.243625,8.182625 14.2113125,8.2726875 C14.1783125,8.36275 14.1618125,8.4596875 14.1618125,8.5628125 C14.1618125,8.66525 14.1783125,8.7621875 14.2113125,8.85225 C14.2443125,8.943 14.2924375,9.0220625 14.3556875,9.090125 C14.419625,9.1581875 14.496625,9.211125 14.5866875,9.2503125 C14.67675,9.2895 14.779875,9.30875 14.895375,9.30875 C15.010875,9.30875 15.1133125,9.2895 15.2040625,9.2503125 C15.294125,9.211125 15.371125,9.1575 15.4350625,9.090125 C15.499,9.0220625 15.547125,8.943 15.580125,8.85225 C15.613125,8.7621875 15.629625,8.66525 15.629625,8.5628125 C15.629625,8.4596875 15.613125,8.3634375 15.580125,8.2726875 C15.547125,8.182625 15.4983125,8.1035625 15.4350625,8.0355 Z" id="Path" fill="#FF8000"></path>
            <path d="M11.2963125,6.903875 L10.68925,6.903875 C10.660375,6.903875 10.637,6.92725 10.637,6.956125 L10.637,7.924125 C10.637,7.953 10.660375,7.976375 10.68925,7.976375 L11.2963125,7.976375 C11.452375,7.976375 11.581625,7.926875 11.68475,7.8285625 C11.7871875,7.73025 11.83875,7.6003125 11.83875,7.440125 C11.83875,7.2799375 11.7871875,7.1506875 11.68475,7.0516875 C11.5823125,6.953375 11.4530625,6.903875 11.2963125,6.903875 Z" id="Path" fill="#FF8000"></path>
            <path d="M19.25,0 L2.75,0 C1.2313125,0 0,1.2313125 0,2.75 L0,13.028125 C0,14.5468125 1.2313125,15.778125 2.75,15.778125 L19.25,15.778125 C20.7686875,15.778125 22,14.5468125 22,13.028125 L22,2.75 C22,1.2313125 20.7686875,0 19.25,0 Z M8.0471875,7.9083125 C8.0471875,7.9083125 7.552875,7.9578125 7.5068125,7.9695 C7.4394375,7.9756875 7.3899375,8.0355 7.396125,8.102875 C7.396125,8.10425 7.396125,8.105625 7.3968125,8.107 C7.3968125,8.107 7.371375,9.849125 7.2435,10.6865 C7.2435,10.6865 7.2105,11.0185625 7.0255625,11.0103125 C7.0255625,11.0103125 6.518875,10.9938125 6.400625,10.99725 C6.400625,10.99725 6.3490625,11.0006875 6.3573125,10.9291875 C6.3573125,10.9291875 6.615125,8.2121875 6.4398125,6.837875 C6.4398125,6.837875 6.4329375,6.6605 6.2968125,6.6240625 C6.2968125,6.6240625 6.1744375,6.5745625 6.0561875,6.7368125 C6.0561875,6.7368125 5.2525,7.7570625 5.253875,9.1884375 C5.253875,9.1884375 5.2394375,9.6229375 5.3054375,9.733625 C5.3054375,9.733625 5.3466875,9.8099375 5.556375,9.827125 L5.8224375,9.862875 C5.8224375,9.862875 5.8719375,9.862875 5.8678125,9.9275 C5.8678125,9.9275 5.806625,10.7243125 5.7894375,10.8659375 C5.78875,10.89825 5.781875,10.9305625 5.7695,10.960125 C5.7695,10.960125 5.759875,10.9869375 5.676,10.9841875 C5.676,10.9841875 4.5038125,10.9759375 4.3725,10.9841875 C4.3725,10.9841875 4.3175,10.9896875 4.305125,10.9553125 C4.29275,10.9209375 4.2233125,9.926125 4.2260625,9.7845 C4.2246875,9.7549375 4.2405,9.7274375 4.2673125,9.714375 C4.4488125,9.6009375 4.569125,9.4098125 4.5925,9.197375 C4.5925,9.197375 4.609,9.114875 4.599375,8.7415625 C4.599375,8.7415625 4.642,7.2125625 4.653,6.9678125 C4.653,6.9678125 4.6619375,6.8853125 4.554,6.8695 C4.4996875,6.857125 4.4460625,6.890125 4.433,6.9444375 C4.4323125,6.9471875 4.431625,6.950625 4.4309375,6.953375 C4.4309375,6.953375 4.354625,7.9619375 4.36975,8.3634375 C4.36975,8.3634375 4.3951875,8.6246875 4.2150625,8.6295 C4.2150625,8.6295 4.0390625,8.655625 4.0315,8.4390625 C4.0315,8.4390625 4.0445625,7.4586875 4.0871875,6.974 C4.0885625,6.919 4.0459375,6.87225 3.9909375,6.8688125 C3.9331875,6.859875 3.878875,6.8990625 3.86925,6.9568125 C3.8685625,6.9595625 3.8685625,6.963 3.867875,6.96575 C3.867875,6.96575 3.79225,7.9035 3.8066875,8.3985 C3.8066875,8.3985 3.8286875,8.6384375 3.636875,8.6295 C3.636875,8.6295 3.4766875,8.64875 3.46775,8.4349375 C3.46775,8.4349375 3.51175,7.09225 3.52275,6.9884375 C3.5303125,6.9293125 3.4890625,6.8743125 3.42925,6.86675 C3.4258125,6.8660625 3.422375,6.8660625 3.41825,6.8660625 C3.3611875,6.8585 3.309625,6.898375 3.3020625,6.9554375 C3.301375,6.958875 3.301375,6.9623125 3.301375,6.96575 C3.301375,6.96575 3.229875,8.5710625 3.2401875,9.0426875 C3.2401875,9.0426875 3.2333125,9.527375 3.5915,9.724 C3.5915,9.724 3.6444375,9.7549375 3.645125,9.8003125 C3.645125,9.8003125 3.6856875,10.652125 3.7214375,10.927125 C3.7214375,10.927125 3.7351875,10.9924375 3.6760625,10.9924375 L2.7754375,11.0171875 C2.7754375,11.0171875 2.6255625,11.0275 2.5911875,10.8425625 C2.561625,10.67 2.396625,9.2489375 2.424125,8.1214375 C2.431,8.0513125 2.3835625,7.987375 2.314125,7.973625 C2.314125,7.973625 1.8535,7.931 1.7414375,7.9035 C1.639,7.877375 1.5778125,7.772875 1.6039375,7.6704375 C1.6080625,7.65325 1.6149375,7.63675 1.623875,7.621625 C1.623875,7.621625 2.6214375,5.7234375 4.6915,4.4405625 C4.8200625,4.3553125 4.987125,4.3553125 5.115,4.4405625 C5.440875,4.6454375 5.7536875,4.8709375 6.051375,5.115 C6.051375,5.115 6.1325,5.171375 6.1345625,5.0758125 C6.1345625,5.0758125 6.1208125,4.794625 6.1551875,4.708 C6.177875,4.640625 6.2404375,4.5959375 6.31125,4.59525 C6.31125,4.59525 6.6790625,4.6138125 6.9128125,4.64475 C7.0173125,4.6605625 7.0970625,4.7465 7.1053125,4.8516875 C7.1053125,4.8516875 7.2551875,5.8540625 7.288875,6.215 C7.288875,6.215 7.3184375,6.3985625 7.5845,6.71 C7.5845,6.71 8.1214375,7.4641875 8.1874375,7.612 C8.1915625,7.610625 8.317375,7.87325 8.0471875,7.9083125 Z M12.72425,7.9798125 C12.6520625,8.1461875 12.552375,8.289875 12.4251875,8.4115625 C12.298,8.53325 12.145375,8.628125 11.9686875,8.69825 C11.792,8.768375 11.5988125,8.80275 11.389125,8.80275 L10.68925,8.80275 C10.660375,8.80275 10.637,8.826125 10.637,8.855 L10.637,10.0326875 C10.637,10.0615625 10.613625,10.0849375 10.58475,10.0849375 L9.7150625,10.0849375 C9.6861875,10.0849375 9.6628125,10.0615625 9.6628125,10.0326875 L9.6628125,6.12975 C9.6628125,6.100875 9.6861875,6.0775 9.7150625,6.0775 L11.389125,6.0775 C11.5988125,6.0775 11.792,6.1125625 11.9686875,6.182 C12.145375,6.252125 12.2973125,6.3476875 12.4251875,6.4686875 C12.552375,6.5896875 12.6520625,6.7340625 12.72425,6.9004375 C12.7964375,7.0668125 12.8321875,7.2469375 12.8321875,7.440125 C12.8315,7.6333125 12.79575,7.8134375 12.72425,7.9798125 Z M16.5419375,10.033375 C16.5419375,10.06225 16.5185625,10.085625 16.4896875,10.085625 L15.7306875,10.085625 C15.7018125,10.085625 15.6784375,10.06225 15.6784375,10.033375 L15.6784375,9.79 L15.6660625,9.79 C15.576,9.9089375 15.4501875,10.000375 15.29,10.0643125 C15.1298125,10.12825 14.944875,10.159875 14.7351875,10.159875 C14.51725,10.159875 14.3171875,10.1206875 14.133625,10.0423125 C13.95075,9.964625 13.792625,9.8553125 13.6585625,9.71575 C13.5251875,9.5761875 13.42,9.4105 13.344375,9.219375 C13.2680625,9.02825 13.23025,8.8199375 13.23025,8.59375 C13.23025,8.3510625 13.266,8.130375 13.3381875,7.931 C13.410375,7.731625 13.5128125,7.55975 13.646875,7.4160625 C13.78025,7.272375 13.93975,7.161 14.1246875,7.0833125 C14.309625,7.0049375 14.513125,6.96575 14.7351875,6.96575 C14.949,6.96575 15.136,6.9980625 15.2961875,7.0613125 C15.456375,7.12525 15.580125,7.2166875 15.6660625,7.335625 L15.6784375,7.335625 L15.6784375,7.09225 C15.6784375,7.063375 15.7018125,7.04 15.7306875,7.04 L16.4896875,7.04 C16.5185625,7.04 16.5419375,7.063375 16.5419375,7.09225 L16.5419375,10.033375 L16.5419375,10.033375 Z M18.7495,11.1931875 C18.74125,11.213125 18.722,11.2261875 18.7006875,11.2261875 L17.83925,11.2261875 C17.802125,11.2261875 17.7766875,11.1890625 17.7904375,11.1546875 L18.2105,10.104875 C18.2153125,10.0925 18.2153125,10.07875 18.2105,10.066375 L17.05,7.1108125 C17.03625,7.0764375 17.0616875,7.0393125 17.0988125,7.0393125 L17.983625,7.0393125 C18.005625,7.0393125 18.0255625,7.0530625 18.033125,7.074375 L18.7116875,8.976 L18.7240625,8.976 L19.402625,7.074375 C19.4101875,7.05375 19.430125,7.0393125 19.452125,7.0393125 L20.3121875,7.0393125 C20.3493125,7.0393125 20.37475,7.0764375 20.361,7.1108125 L18.7495,11.1931875 Z" id="Shape" fill="#FF8000"></path>
            <path d="M7.5879375,6.708625 C7.321875,6.3971875 7.2923125,6.213625 7.2923125,6.213625 C7.258625,5.8526875 7.10875,4.8503125 7.10875,4.8503125 C7.1005,4.745125 7.02075,4.6591875 6.91625,4.643375 C6.6825,4.6124375 6.3146875,4.593875 6.3146875,4.593875 C6.2445625,4.593875 6.1813125,4.63925 6.158625,4.7059375 C6.12425,4.7925625 6.138,5.07375 6.138,5.07375 C6.13525,5.1693125 6.0548125,5.1129375 6.0548125,5.1129375 C5.757125,4.868875 5.4443125,4.6440625 5.11775,4.4391875 C4.9891875,4.3539375 4.822125,4.3539375 4.69425,4.4391875 C2.6241875,5.7220625 1.626625,7.62025 1.626625,7.62025 C1.6176875,7.635375 1.6108125,7.651875 1.6066875,7.6690625 C1.5805625,7.7715 1.64175,7.8753125 1.7441875,7.902125 C1.8555625,7.929625 2.316875,7.97225 2.316875,7.97225 C2.3863125,7.986 2.43375,8.0499375 2.426875,8.1200625 C2.4000625,9.2475625 2.5650625,10.668625 2.5939375,10.8411875 C2.6283125,11.026125 2.7781875,11.0158125 2.7781875,11.0158125 L3.6788125,10.9910625 C3.7379375,10.9910625 3.7241875,10.92575 3.7241875,10.92575 C3.68775,10.6514375 3.647875,9.7989375 3.647875,9.7989375 C3.6465,9.752875 3.59425,9.722625 3.59425,9.722625 C3.2360625,9.526 3.2429375,9.0413125 3.2429375,9.0413125 C3.232625,8.5696875 3.304125,6.964375 3.304125,6.964375 C3.304125,6.9609375 3.3048125,6.9575 3.3048125,6.9540625 C3.312375,6.897 3.364625,6.857125 3.421,6.8646875 C3.4244375,6.8646875 3.427875,6.865375 3.432,6.865375 C3.491125,6.8729375 3.5330625,6.9279375 3.5255,6.9870625 C3.5145,7.0915625 3.4705,8.4335625 3.4705,8.4335625 C3.4794375,8.6466875 3.639625,8.628125 3.639625,8.628125 C3.8314375,8.6370625 3.8094375,8.397125 3.8094375,8.397125 C3.795,7.902125 3.870625,6.964375 3.870625,6.964375 C3.870625,6.961625 3.8713125,6.9581875 3.872,6.9554375 C3.881625,6.8976875 3.9359375,6.8585 3.9936875,6.8674375 C4.0486875,6.8715625 4.0913125,6.917625 4.0899375,6.972625 C4.0473125,7.456625 4.03425,8.4376875 4.03425,8.4376875 C4.0425,8.6549375 4.2178125,8.628125 4.2178125,8.628125 C4.3979375,8.6233125 4.3725,8.3620625 4.3725,8.3620625 C4.3580625,7.9605625 4.4336875,6.952 4.4336875,6.952 C4.434375,6.94925 4.434375,6.9458125 4.43575,6.9430625 C4.448125,6.88875 4.5024375,6.85575 4.55675,6.868125 C4.665375,6.8839375 4.65575,6.9664375 4.65575,6.9664375 C4.64475,7.211875 4.602125,8.7401875 4.602125,8.7401875 C4.61175,9.1135 4.59525,9.196 4.59525,9.196 C4.5711875,9.409125 4.4515625,9.5995625 4.2700625,9.713 C4.24325,9.7260625 4.2274375,9.7535625 4.2288125,9.783125 C4.2260625,9.92475 4.2955,10.9195625 4.307875,10.9539375 C4.32025,10.9883125 4.37525,10.9828125 4.37525,10.9828125 C4.50725,10.9745625 5.67875,10.9828125 5.67875,10.9828125 C5.7619375,10.9855625 5.77225,10.95875 5.77225,10.95875 C5.7839375,10.9285 5.7908125,10.896875 5.7921875,10.8645625 C5.809375,10.7229375 5.8705625,9.926125 5.8705625,9.926125 C5.8746875,9.8615 5.8251875,9.8615 5.8251875,9.8615 L5.559125,9.82575 C5.3494375,9.8085625 5.3081875,9.73225 5.3081875,9.73225 C5.2421875,9.6215625 5.256625,9.1870625 5.256625,9.1870625 C5.25525,7.7556875 6.0589375,6.7354375 6.0589375,6.7354375 C6.1771875,6.5731875 6.2995625,6.6226875 6.2995625,6.6226875 C6.4356875,6.659125 6.4425625,6.8365 6.4425625,6.8365 C6.617875,8.2108125 6.3600625,10.9278125 6.3600625,10.9278125 C6.3518125,10.9993125 6.403375,10.995875 6.403375,10.995875 C6.5209375,10.9924375 7.0283125,11.0089375 7.0283125,11.0089375 C7.2125625,11.0171875 7.24625,10.685125 7.24625,10.685125 C7.3734375,9.84775 7.3995625,8.105625 7.3995625,8.105625 C7.3995625,8.10425 7.3995625,8.102875 7.398875,8.1015 C7.3926875,8.034125 7.4421875,7.9743125 7.5095625,7.968125 C7.5563125,7.9564375 8.0499375,7.9069375 8.0499375,7.9069375 C8.320125,7.871875 8.1943125,7.6099375 8.1943125,7.6099375 C8.124875,7.4628125 7.5879375,6.708625 7.5879375,6.708625 Z" id="Path" fill="#FFFFFF"></path>
            <path d="M12.4251875,6.469375 C12.298,6.3476875 12.145375,6.2528125 11.9686875,6.1826875 C11.792,6.1125625 11.5988125,6.0781875 11.389125,6.0781875 L9.7150625,6.0781875 C9.6861875,6.0781875 9.6628125,6.1015625 9.6628125,6.1304375 L9.6628125,10.033375 C9.6628125,10.06225 9.6861875,10.085625 9.7150625,10.085625 L10.58475,10.085625 C10.613625,10.085625 10.637,10.06225 10.637,10.033375 L10.637,8.8556875 C10.637,8.8268125 10.660375,8.8034375 10.68925,8.8034375 L11.389125,8.8034375 C11.5988125,8.8034375 11.792,8.768375 11.9686875,8.6989375 C12.145375,8.6288125 12.2973125,8.53325 12.4251875,8.41225 C12.552375,8.29125 12.6520625,8.146875 12.72425,7.9805 C12.7964375,7.814125 12.8321875,7.634 12.8321875,7.4408125 C12.8321875,7.247625 12.7964375,7.0681875 12.72425,6.901125 C12.6520625,6.73475 12.552375,6.590375 12.4251875,6.469375 Z M11.68475,7.8285625 C11.581625,7.9275625 11.452375,7.976375 11.2963125,7.976375 L10.68925,7.976375 C10.660375,7.976375 10.637,7.953 10.637,7.924125 L10.637,6.956125 C10.637,6.92725 10.660375,6.903875 10.68925,6.903875 L11.2963125,6.903875 C11.452375,6.903875 11.581625,6.953375 11.68475,7.0516875 C11.7871875,7.15 11.83875,7.2799375 11.83875,7.440125 C11.83875,7.6003125 11.787875,7.73025 11.68475,7.8285625 Z" id="Shape" fill="#FFFFFF"></path>
            <path d="M15.7306875,7.0393125 C15.7018125,7.0393125 15.6784375,7.0626875 15.6784375,7.0915625 L15.6784375,7.3349375 L15.6660625,7.3349375 C15.5794375,7.216 15.456375,7.1245625 15.2961875,7.060625 C15.136,6.9966875 14.949,6.9650625 14.7351875,6.9650625 C14.513125,6.9650625 14.309625,7.00425 14.1246875,7.082625 C13.93975,7.161 13.78025,7.2716875 13.646875,7.415375 C13.5135,7.5590625 13.410375,7.7309375 13.3381875,7.9303125 C13.266,8.1296875 13.23025,8.350375 13.23025,8.5930625 C13.23025,8.81925 13.2680625,9.0275625 13.344375,9.2186875 C13.42,9.4098125 13.5251875,9.5755 13.6585625,9.7150625 C13.7919375,9.854625 13.9500625,9.9639375 14.133625,10.041625 C14.3165,10.12 14.51725,10.1591875 14.7351875,10.1591875 C14.944875,10.1591875 15.1298125,10.126875 15.29,10.063625 C15.450875,9.9996875 15.576,9.90825 15.6660625,9.7893125 L15.6784375,9.7893125 L15.6784375,10.0326875 C15.6784375,10.0615625 15.7018125,10.0849375 15.7306875,10.0849375 L16.4896875,10.0849375 C16.5185625,10.0849375 16.5419375,10.0615625 16.5419375,10.0326875 L16.5419375,7.0915625 C16.5419375,7.0626875 16.5185625,7.0393125 16.4896875,7.0393125 L15.7306875,7.0393125 Z M15.580125,8.85225 C15.547125,8.943 15.499,9.0220625 15.4350625,9.090125 C15.371125,9.1581875 15.294125,9.211125 15.2040625,9.2503125 C15.1133125,9.2895 15.010875,9.30875 14.895375,9.30875 C14.7805625,9.30875 14.6774375,9.2895 14.5866875,9.2503125 C14.496625,9.211125 14.419625,9.1575 14.3556875,9.090125 C14.2924375,9.0220625 14.243625,8.943 14.2113125,8.85225 C14.1783125,8.7621875 14.1618125,8.66525 14.1618125,8.5628125 C14.1618125,8.4596875 14.1783125,8.3634375 14.2113125,8.2726875 C14.2443125,8.1819375 14.2924375,8.102875 14.3556875,8.0355 C14.419625,7.9674375 14.496625,7.9138125 14.5866875,7.8753125 C14.67675,7.836125 14.779875,7.816875 14.895375,7.816875 C15.010875,7.816875 15.1133125,7.836125 15.2040625,7.8753125 C15.294125,7.9145 15.371125,7.9674375 15.4350625,8.0355 C15.499,8.1035625 15.547125,8.182625 15.580125,8.2726875 C15.613125,8.36275 15.629625,8.4596875 15.629625,8.5628125 C15.6289375,8.66525 15.6124375,8.7621875 15.580125,8.85225 Z" id="Shape" fill="#FFFFFF"></path>
            <path d="M20.3115,7.0393125 L19.4514375,7.0393125 C19.4294375,7.0393125 19.4095,7.0530625 19.4019375,7.074375 L18.723375,8.976 L18.711,8.976 L18.033125,7.074375 C18.0255625,7.05375 18.005625,7.0393125 17.983625,7.0393125 L17.0988125,7.0393125 C17.0616875,7.0393125 17.03625,7.0764375 17.05,7.1108125 L18.2105,10.066375 C18.2153125,10.07875 18.2153125,10.0925 18.2105,10.104875 L17.7904375,11.1546875 C17.7766875,11.1890625 17.802125,11.2261875 17.83925,11.2261875 L18.7006875,11.2261875 C18.722,11.2261875 18.74125,11.213125 18.7495,11.1931875 L20.361,7.1108125 C20.3740625,7.077125 20.348625,7.0393125 20.3115,7.0393125 Z" id="Path" fill="#FFFFFF"></path>
        </g>
    </g>
</svg>