<?xml version="1.0" encoding="UTF-8"?>
<svg width="24px" height="24px" viewBox="0 0 24 24" version="1.1" xmlns="http://www.w3.org/2000/svg" xmlns:xlink="http://www.w3.org/1999/xlink">
    <title>Apple Pay</title>
    <g id="Apple-Pay" stroke="none" stroke-width="1" fill="none" fill-rule="evenodd">
        <g id="Apple_Pay_Mark_RGB_041619" transform="translate(1.000000, 5.000000)" fill-rule="nonzero">
            <path d="M20.0298218,0 L1.97020162,0 C1.89498581,0 1.8196371,0 1.74455554,0.000438614865 C1.68108796,0.000890521089 1.61776793,0.00159496315 1.55444789,0.00332283989 C1.41635067,0.00705771192 1.27707051,0.0152053153 1.14070116,0.0397145823 C1.00215203,0.0646491728 0.873225841,0.105320733 0.747449705,0.169358503 C0.623800187,0.232239925 0.510597678,0.314486858 0.412495483,0.412630257 C0.314350755,0.510773656 0.232103822,0.623790086 0.169235691,0.747572517 C0.105184629,0.873348653 0.0644864866,1.00231471 0.0397246837,1.14097018 C0.0150838323,1.2773794 0.00688173432,1.41663297 0.00316015364,1.55458399 C0.00145885962,1.61790403 0.000729163984,1.68122407 0.000315802703,1.74453081 C0,1.8197732 0,1.89496242 0,1.97033772 L0,12.1140109 C0,12.1893862 0,12.2644439 0.000315802703,12.3398324 C0.000729163984,12.4031392 0.00145885962,12.4664592 0.00316015364,12.5297793 C0.00688173432,12.6676093 0.0150838323,12.8068629 0.0397246837,12.9432323 C0.0644864866,13.0819409 0.105184629,13.2108538 0.169235691,13.3366432 C0.232103822,13.4604256 0.314350755,13.5735883 0.412495483,13.6715855 C0.510597678,13.7698884 0.623800187,13.852122 0.747449705,13.9148439 C0.873225841,13.9790545 1.00215203,14.0197393 1.14070116,14.0446606 C1.27707051,14.0690104 1.41635067,14.0773042 1.55444789,14.0810391 C1.61776793,14.0824746 1.68108796,14.0833252 1.74455554,14.0836176 C1.8196371,14.0842024 1.89498581,14.0842024 1.97020162,14.0842024 L20.0298218,14.0842024 C20.1049047,14.0842024 20.1802547,14.0842024 20.2553217,14.0836176 C20.318643,14.0833252 20.3819644,14.0824746 20.4455742,14.0810391 C20.583379,14.0773042 20.7226326,14.0690104 20.8593355,14.0446606 C20.9976986,14.0197393 21.1266513,13.9790545 21.2524408,13.9148439 C21.3762232,13.852122 21.4890934,13.7698884 21.5873977,13.6715855 C21.6853816,13.5735883 21.7676272,13.4604256 21.8306561,13.3366432 C21.8948521,13.2108538 21.9355103,13.0819409 21.9601525,12.9432323 C21.984808,12.8068629 21.9928094,12.6676093 21.9965442,12.5297793 C21.9982721,12.4664592 21.9991241,12.4031392 21.9994165,12.3398324 C22,12.2644439 22,12.1893875 22,12.1140109 L22,1.97033772 C22,1.89496242 22,1.8197732 21.9994165,1.74453081 C21.9991241,1.68122407 21.9982721,1.61790403 21.9965442,1.55458399 C21.992808,1.41663297 21.984808,1.2773794 21.9601525,1.14097018 C21.9355117,1.00231471 21.8948521,0.873348653 21.8306561,0.747572517 C21.7676272,0.623790086 21.6853816,0.510773656 21.5873977,0.412630257 C21.4890934,0.314486858 21.3762232,0.232239925 21.2524408,0.169358503 C21.1266513,0.105320733 20.9976986,0.0646491728 20.8593355,0.0397145823 C20.7226339,0.0152053153 20.5833803,0.00705771192 20.4455742,0.00332283989 C20.3819644,0.00159496315 20.318643,0.000890521089 20.2553217,0.000438614865 C20.1802547,0 20.1049047,0 20.0298218,0 L20.0298218,0 Z" id="XMLID_4_" fill="#000000"></path>
            <path d="M20.0298218,0.469450819 L20.2519855,0.469876143 C20.3121688,0.470301466 20.3723534,0.470952743 20.4328703,0.472600871 C20.5381392,0.475445222 20.661281,0.481147215 20.7760652,0.50172224 C20.8758434,0.519692158 20.9595245,0.547019193 21.0398322,0.587903415 C21.1191151,0.628189526 21.1917538,0.680982806 21.2551775,0.744316134 C21.3188431,0.808074786 21.3717041,0.880831688 21.4125219,0.960991878 C21.4531788,1.04067358 21.4803331,1.12395724 21.4981967,1.2244665 C21.5187185,1.33800129 21.524394,1.46147802 21.5272795,1.56739687 C21.5288997,1.6271814 21.5296972,1.68696594 21.5299909,1.74817265 C21.5305492,1.82219223 21.5305492,1.89617193 21.5305492,1.97033772 L21.5305492,12.1140109 C21.5305492,12.1881767 21.5305492,12.2620235 21.5299777,12.3376247 C21.5296972,12.397396 21.5289011,12.4571805 21.5272662,12.5170714 C21.524394,12.6228307 21.5187199,12.746241 21.4979455,12.8611182 C21.4803331,12.9602452 21.4531935,13.0435421 21.4123106,13.1236226 C21.3716111,13.2035834 21.3188311,13.2762606 21.2554433,13.3396205 C21.1916594,13.403419 21.11926,13.4560528 21.0390347,13.496711 C20.9593264,13.5373959 20.8757889,13.5646977 20.7769942,13.5824802 C20.6598854,13.6033476 20.5315839,13.6090895 20.4349557,13.6117079 C20.374161,13.6130769 20.3136588,13.6138996 20.2516825,13.6141934 C20.1778211,13.6147516 20.1036965,13.6147516 20.0298231,13.6147516 L1.97020162,13.6147516 C1.96921806,13.6147516 1.96826108,13.6147516 1.96726423,13.6147516 C1.8942415,13.6147516 1.82107256,13.6147516 1.7467207,13.6141801 C1.68609881,13.6138996 1.62560983,13.6130902 1.56712785,13.6117611 C1.4682933,13.6090895 1.33991206,13.6033609 1.22375887,13.5826131 C1.12411487,13.5646964 1.04057735,13.5373959 0.959819048,13.4961794 C0.880351338,13.45588 0.808005139,13.4032994 0.744193322,13.3393812 C0.680873285,13.2761675 0.628252793,13.2037163 0.587567941,13.1236359 C0.546843216,13.0436352 0.519595929,12.9600857 0.501680505,12.8597758 C0.480971238,12.7451245 0.475282536,12.622206 0.472439514,12.5171644 C0.470816639,12.457021 0.47013878,12.3968909 0.46975333,12.3371064 L0.46946092,12.1606104 L0.46946092,12.1140109 L0.46946092,1.97033772 L0.46946092,1.92373821 L0.469740039,1.74761441 C0.47013878,1.68747101 0.470816639,1.6273409 0.472439514,1.56725066 C0.475282536,1.46210272 0.480971238,1.33913106 0.501851964,1.22352281 C0.51960922,1.12411673 0.546843216,1.04056725 0.587780603,0.960167813 C0.628146462,0.880698775 0.680859994,0.808154534 0.744513644,0.744515505 C0.807913429,0.681089137 0.880496214,0.628362314 0.960470325,0.587690754 C1.04036469,0.547005902 1.12406038,0.519692158 1.2237057,0.501762114 C1.33851646,0.481133924 1.46174066,0.475445222 1.56727405,0.47258758 C1.62743075,0.470952743 1.68758744,0.470301466 1.74729223,0.469889434 L1.97020162,0.469450819 L20.0298218,0.469450819" id="XMLID_3_" fill="#FFFFFF"></path>
            <g id="Group" transform="translate(2.981972, 3.861867)" fill="#000000">
                <g transform="translate(0.000000, 0.000000)" id="Path">
                    <path d="M3.02388801,0.875244001 C3.21225848,0.639633387 3.34008547,0.323277763 3.30637194,9.44407897e-16 C3.03062407,0.0137113665 2.69412673,0.181920167 2.49931128,0.417715531 C2.32438769,0.619637865 2.16956594,0.949239658 2.20992781,1.25896555 C2.51946896,1.28581543 2.82872434,1.10424349 3.02388801,0.875244001"></path>
                    <path d="M3.30285504,1.31943991 C2.85332664,1.29266313 2.47111765,1.57456888 2.25644491,1.57456888 C2.04165389,1.57456888 1.71292002,1.3329333 1.35736685,1.33944606 C0.894592278,1.34624326 0.465190984,1.60789963 0.230352597,2.02405608 C-0.252670029,2.85657368 0.102883143,4.09148851 0.572597131,4.76952728 C0.800700785,5.10497461 1.07560465,5.47432688 1.43783274,5.46105944 C1.78007727,5.44762985 1.91422298,5.23944994 2.33023588,5.23944994 C2.74594309,5.23944994 2.86678016,5.46105944 3.22906673,5.45434597 C3.60476695,5.44762852 3.83964653,5.11873117 4.06774753,4.78295687 C4.32942516,4.40056446 4.43654687,4.03133315 4.44328426,4.01106382 C4.43654554,4.00435036 3.71882808,3.72901586 3.71217309,2.90341774 C3.70539716,2.2121328 4.27566161,1.88331919 4.30250085,1.86292759 C3.98046716,1.38663836 3.47729616,1.3329333 3.30285504,1.31943991"></path>
                </g>
                <g transform="translate(5.329145, 0.383898)">
                    <path d="M1.8878542,0 C2.86489673,0 3.54524686,0.67348515 3.54524686,1.65402729 C3.54524686,2.63807037 2.85089694,3.31505381 1.86335424,3.31505381 L0.781581119,3.31505381 L0.781581119,5.0353784 L-1.88881579e-15,5.0353784 L-1.88881579e-15,0 L1.8878542,0 L1.8878542,0 Z M0.78157979,2.65900293 L1.67839035,2.65900293 C2.35887473,2.65900293 2.74616501,2.29264522 2.74616501,1.6575269 C2.74616501,1.02247638 2.35887473,0.659551818 1.68188997,0.659551818 L0.78157979,0.659551818 L0.78157979,2.65900293 L0.78157979,2.65900293 Z" id="Shape"></path>
                    <path d="M3.74945797,3.99203857 C3.74945797,3.3499197 4.24148018,2.95563019 5.11392634,2.90676451 L6.1188342,2.84746644 L6.1188342,2.5648403 C6.1188342,2.15654967 5.84314084,1.91228904 5.38261915,1.91228904 C4.94632895,1.91228904 4.67413519,2.12161732 4.60790435,2.44967598 L3.89605369,2.44967598 C3.93792014,1.78662455 4.50317242,1.29810329 5.41048449,1.29810329 C6.30029582,1.29810329 6.86904771,1.7691916 6.86904771,2.50547444 L6.86904771,5.03537973 L6.14669954,5.03537973 L6.14669954,4.43169415 L6.12933438,4.43169415 C5.91650648,4.83998478 5.45235094,5.09817741 4.97082891,5.09817741 C4.25197902,5.09817741 3.74945797,4.65152128 3.74945797,3.99203857 Z M6.1188342,3.66054675 L6.1188342,3.37092138 L5.21502175,3.42671984 C4.764866,3.45815257 4.51017298,3.65704713 4.51017298,3.97110601 C4.51017298,4.29209766 4.77536618,4.5014924 5.18015719,4.5014924 C5.70704396,4.5014924 6.1188342,4.13856784 6.1188342,3.66054675 Z" id="Shape"></path>
                    <path d="M7.55101275,6.38584698 L7.55101275,5.77516218 C7.60674342,5.78909551 7.73234012,5.78909551 7.7952056,5.78909551 C8.14413037,5.78909551 8.33259254,5.64256492 8.44768907,5.26570835 C8.44768907,5.25870779 8.51405416,5.04238029 8.51405416,5.03888067 L7.18808686,1.36440192 L8.00453255,1.36440192 L8.93284363,4.35146352 L8.94670918,4.35146352 L9.87502159,1.36440192 L10.6706025,1.36440192 L9.29563395,5.22727506 C8.98171064,6.11715418 8.61878475,6.40327993 7.85807107,6.40327993 C7.79520693,6.40327993 7.60674475,6.39627937 7.55101275,6.38584698 Z" id="Path"></path>
                </g>
            </g>
        </g>
    </g>
</svg>