<?xml version="1.0" encoding="UTF-8"?>
<svg width="24px" height="24px" viewBox="0 0 24 24" version="1.1" xmlns="http://www.w3.org/2000/svg" xmlns:xlink="http://www.w3.org/1999/xlink">
    <title>Cash</title>
    <g id="Page-1" stroke="none" stroke-width="1" fill="none" fill-rule="evenodd">
       <path d="M7.46125268,7.91025114 C11.0298833,7.91025114 13.9225054,10.8403096 13.9225054,14.4551256 C13.9225054,18.0699415 11.0298833,21 7.4616565,21 C3.89302589,21 1,18.0699415 1,14.4551256 C1,10.8403096 3.89262206,7.91025114 7.46125268,7.91025114 Z M22,17.7259675 L22,20.9984047 L12.2891411,20.9984047 C13.401688,20.1541159 14.29536,19.0308518 14.8595081,17.7259675 L14.8595081,17.7259675 L22,17.7259675 Z M21.9997577,12.8173116 L21.9997577,16.0897489 L15.3753584,16.0897489 C15.4815652,15.5612503 15.5376974,15.0147532 15.5376974,14.4551665 C15.5376974,13.8943525 15.4815652,13.3466284 15.3749546,12.8173116 L15.3749546,12.8173116 L21.9997577,12.8173116 Z M22,7.90865582 L22,11.181093 L14.8578928,11.181093 C14.292937,9.87579965 13.3984574,8.75253557 12.2846989,7.90865582 L12.2846989,7.90865582 L22,7.90865582 Z M20.9903081,3 C21.547995,3 21.9998789,3.45773216 21.9998789,4.02263663 L21.9998789,6.27243722 L9.0773735,6.27243722 L9.0773735,4.02263663 C9.0773735,3.45773216 9.52925736,3 10.0869442,3 L20.9903081,3 Z" id="cash" fill="#FF8000"/>
    </g>
</svg>