<?xml version="1.0" encoding="UTF-8"?>
<svg width="24px" height="24px" viewBox="0 0 24 24" version="1.1" xmlns="http://www.w3.org/2000/svg" xmlns:xlink="http://www.w3.org/1999/xlink">
    <title>Icons/24/Payment/Meal - Voucher</title>
    <g id="Icons/24/Payment/Meal---Voucher" stroke="none" stroke-width="1" fill="none" fill-rule="evenodd">
        <path d="M3.363,9.465 C3.7113776,9.45372234 4.03822855,9.63314219 4.21575454,9.93310661 C4.39328053,10.233071 4.39328053,10.605929 4.21575454,10.9058934 C4.03822855,11.2058578 3.7113776,11.3852777 3.363,11.374 L3.363,11.374 L2.977,11.374 C2.42471525,11.374 1.977,11.8217153 1.977,12.374 L1.977,12.374 L1.977,20.874 C1.977,21.4262847 2.42471525,21.874 2.977,21.874 L2.977,21.874 L21.018,21.874 C21.5702847,21.874 22.018,21.4262847 22.018,20.874 L22.018,20.874 L22.018,12.374 C22.018,11.8217153 21.5702847,11.374 21.018,11.374 L21.018,11.374 L20.2,11.374 C19.8516224,11.3852777 19.5247715,11.2058578 19.3472455,10.9058934 C19.1697195,10.605929 19.1697195,10.233071 19.3472455,9.93310661 C19.5247715,9.63314219 19.8516224,9.45372234 20.2,9.465 L20.2,9.465 L22.023,9.465 C23.0774735,9.46499986 23.9324479,10.3195267 23.933,11.374 L23.933,11.374 L23.933,21.874 C23.9324479,22.9284733 23.0774735,23.783 22.023,23.783 L22.023,23.783 L1.977,23.783 C0.922526529,23.783 0.0675520804,22.9284733 0.067,21.874 L0.067,21.874 L0.067,11.374 C0.0675520804,10.3195267 0.922526529,9.46499986 1.977,9.465 L1.977,9.465 Z M17.728,17.5789995 C18.2431332,17.5956759 18.652101,18.0180969 18.652101,18.5335 C18.652101,19.0489031 18.2431332,19.4713241 17.728,19.4880005 L17.728,19.4880005 L10.568,19.4880005 C10.3148103,19.4882654 10.0718996,19.3878721 9.89277359,19.2089337 C9.71364755,19.0299952 9.61299947,18.7871899 9.61299947,18.534 C9.61273428,18.2806369 9.71326473,18.0375745 9.89241961,17.8584196 C10.0715745,17.6792647 10.3146369,17.5787343 10.568,17.5789995 L10.568,17.5789995 Z M9.67500473,1.32823777 C10.4330374,1.76588813 10.9000047,2.57469934 10.9000047,3.45000005 L10.9000047,4.75000005 C10.8987652,5.70178941 10.3472769,6.56702206 9.48500472,6.97000005 C9.30921483,7.05229884 9.19693915,7.22889912 9.19700472,7.42300005 L9.19700472,14.2500001 C9.19700472,14.6642136 8.86121828,15 8.44700472,15 C8.03279115,15 7.69700472,14.6642136 7.69700472,14.2500001 L7.69700472,7.42500005 C7.69707028,7.23089912 7.58479461,7.05429884 7.40900472,6.97200005 C6.5475679,6.56793769 5.99814286,5.70149167 6,4.75000005 L6,3.45000005 C6,2.57469934 6.46697206,1.76588813 7.2250047,1.32823777 C7.98303735,0.89058741 8.91697209,0.89058741 9.67500473,1.32823777 Z M17.9970047,1.00000005 C18.4112183,1.00000005 18.7470047,1.33578649 18.7470047,1.75000005 L18.7470047,4.50000005 C18.7717046,5.94351135 17.907529,7.25407172 16.5710047,7.80000005 C16.3764238,7.87317531 16.2474206,8.05911503 16.2470047,8.26700005 L16.2470047,14.2500001 C16.2470047,14.6642136 15.9112183,15.0000001 15.4970047,15.0000001 C15.0827912,15.0000001 14.7470047,14.6642136 14.7470047,14.2500001 L14.7470047,8.27100005 C14.7467461,8.06336782 14.618192,7.87750176 14.4240047,7.80400005 C13.0870876,7.25838929 12.222468,5.94775784 12.2470047,4.50400005 L12.2470047,1.75000005 C12.2470047,1.33578649 12.5827912,1.00000005 12.9970047,1.00000005 C13.4112183,1.00000005 13.7470047,1.33578649 13.7470047,1.75000005 L13.7470047,4.50000005 C13.7411443,5.04632611 13.9447583,5.57414775 14.3160047,5.97500005 C14.3865831,6.04907825 14.4951775,6.07267206 14.5901314,6.03455833 C14.6850852,5.9964446 14.7472301,5.90431741 14.7470047,5.80200005 L14.7470047,1.75000005 C14.7470047,1.33578649 15.0827912,1.00000005 15.4970047,1.00000005 C15.9112183,1.00000005 16.2470047,1.33578649 16.2470047,1.75000005 L16.2470047,5.80200005 C16.2467794,5.90431741 16.3089242,5.9964446 16.4038781,6.03455833 C16.4988319,6.07267206 16.6074263,6.04907825 16.6780047,5.97500005 C17.049692,5.57442281 17.2533764,5.04641836 17.2470047,4.50000005 L17.2470047,1.75000005 C17.2470047,1.33578649 17.5827912,1.00000005 17.9970047,1.00000005 Z" id="Combined-Shape" fill="#FF8000"></path>
    </g>
</svg>