<?xml version="1.0" encoding="UTF-8"?>
<svg width="24px" height="24px" viewBox="0 0 24 24" version="1.1" xmlns="http://www.w3.org/2000/svg" xmlns:xlink="http://www.w3.org/1999/xlink">
    <title>Icons/24/Payment/Paypal</title>
    <defs>
        <polygon id="path-1" points="0 0.461634988 13.0168935 0.461634988 13.0168935 15.5256909 0 15.5256909"></polygon>
    </defs>
    <g id="Icons/24/Payment/Paypal" stroke="none" stroke-width="1" fill="none" fill-rule="evenodd">
        <g id="Paypal" transform="translate(4.000000, 3.000000)">
            <path d="M4.07964728,17.2519563 L4.37329249,15.3867758 L3.71918794,15.3710548 L0.595768531,15.3710548 L2.76638501,1.60847051 C2.77312256,1.56636078 2.79501963,1.52818128 2.82702302,1.50066959 C2.85902642,1.47259643 2.90001323,1.45799839 2.94268443,1.45799839 L8.20920862,1.45799839 C9.95760482,1.45799839 11.1641891,1.8218265 11.7941507,2.53993785 C12.0894803,2.87625427 12.2775705,3.22885312 12.3685275,3.61626268 C12.4639763,4.02276199 12.4656606,4.5084276 12.3724578,5.1007712 L12.3657202,5.14400387 L12.3657202,5.52355294 L12.6610498,5.69086896 C12.909778,5.82281279 13.107413,5.97384638 13.259008,6.14677702 C13.5116665,6.43480761 13.6750522,6.80088157 13.7441122,7.23489257 C13.815418,7.68125577 13.7918366,8.21239989 13.6750522,8.81372691 C13.5403011,9.50544949 13.3224534,10.1078994 13.0282467,10.6003026 C12.7576215,11.0550877 12.4128831,11.4318295 12.0035765,11.7232289 C11.6127981,12.0005917 11.1484681,12.2111403 10.6235001,12.3464529 C10.1148145,12.4789582 9.53482308,12.5457724 8.89868535,12.5457724 L8.48881726,12.5457724 C8.19573351,12.5457724 7.9110717,12.6513274 7.68760937,12.8405405 C7.46358558,13.0331224 7.31535931,13.2975715 7.2698808,13.5861635 L7.23900033,13.754041 L6.72020839,17.0414077 L6.69662694,17.1621222 C6.69045085,17.1997403 6.67978305,17.21883 6.66406208,17.2323051 C6.6500255,17.2435344 6.62981283,17.2519563 6.61016162,17.2519563 L4.07964728,17.2519563 Z" id="Fill-15" fill="#253B80"></path>
            <path d="M12.94049,5.18762955 L12.94049,5.18762955 C12.924769,5.28813145 12.9068022,5.39087921 12.8865896,5.49643427 C12.1920597,9.06228664 9.81594767,10.2941368 6.78123944,10.2941368 L5.23609289,10.2941368 C4.86496576,10.2941368 4.55223079,10.5636391 4.49440009,10.929713 L3.70329854,15.9469476 L3.47927475,17.3691337 C3.44165672,17.6094399 3.62693955,17.8261647 3.86949162,17.8261647 L6.60999318,17.8261647 C6.93451887,17.8261647 7.21019727,17.5903502 7.26129041,17.2703162 L7.28824065,17.1310733 L7.80422526,13.8566203 L7.83735159,13.6769521 C7.88788327,13.3557952 8.16412313,13.1199807 8.48864882,13.1199807 L8.89851691,13.1199807 C11.5536761,13.1199807 13.6322126,12.0419715 14.2397157,8.92248232 C14.493497,7.61932638 14.3621147,6.53121083 13.6906048,5.76593658 C13.4873551,5.53517523 13.2352582,5.3437163 12.94049,5.18762955" id="Fill-17" fill="#179BD7"></path>
            <path d="M12.2140129,4.89785843 C12.1078963,4.86697796 11.998411,4.8389048 11.8861184,4.81363896 C11.7732643,4.78893458 11.6576029,4.76703752 11.5385727,4.74794777 C11.1219671,4.68057219 10.6654975,4.6485688 10.1764632,4.6485688 L6.04858619,4.6485688 C5.94696137,4.6485688 5.85038971,4.67158878 5.76392438,4.71313706 C5.57358838,4.80465555 5.43209967,4.98488521 5.39785042,5.20554022 L4.51972208,10.7679555 L4.49445624,10.9296569 C4.55228694,10.5635829 4.86502191,10.2940806 5.23614904,10.2940806 L6.78129558,10.2940806 C9.81600382,10.2940806 12.1921158,9.06166903 12.8866457,5.49637813 C12.9074198,5.39082306 12.9248252,5.28807531 12.9405462,5.1875734 C12.7648082,5.09437052 12.5744722,5.01464276 12.3695382,4.94670572 C12.3190065,4.92986183 12.2667904,4.9135794 12.2140129,4.89785843" id="Fill-19" fill="#222D65"></path>
            <g id="Group-23" transform="translate(0.000000, 0.421369)">
                <mask id="mask-2" fill="white">
                    <use xlink:href="#path-1"></use>
                </mask>
                <g id="Clip-22"></g>
                <path d="M5.39779427,4.78433965 C5.43204353,4.56368464 5.57353224,4.38345498 5.76386824,4.29249795 C5.85089502,4.25094968 5.94690522,4.22792969 6.04853005,4.22792969 L10.176407,4.22792969 C10.6654414,4.22792969 11.1219109,4.25993309 11.5385166,4.32730866 C11.6575468,4.34639841 11.7732082,4.36829547 11.8860622,4.39299985 C11.9983549,4.41826569 12.1078402,4.44633885 12.2139567,4.47721932 C12.2667343,4.49294029 12.3189503,4.50922272 12.3700435,4.52550515 C12.5749775,4.59344219 12.7653135,4.67373142 12.9410515,4.76637283 C13.1476699,3.44861886 12.9393671,2.55140077 12.2268704,1.73896362 C11.4413834,0.844552846 10.023689,0.461634988 8.20960165,0.461634988 L2.94307745,0.461634988 C2.57251179,0.461634988 2.25640804,0.731137293 2.1991388,1.09777272 L0.00550233871,15.0024072 C-0.0377303226,15.2769627 0.174502742,15.5256909 0.45186553,15.5256909 L3.70329854,15.5256909 L4.51966593,10.3461935 L5.39779427,4.78433965 Z" id="Fill-21" fill="#253B80" mask="url(#mask-2)"></path>
            </g>
        </g>
    </g>
</svg>